<?xml version="1.0" encoding="utf-8"?>
<!-- Generator: Adobe Illustrator 25.2.0, SVG Export Plug-In . SVG Version: 6.00 Build 0)  -->
<svg version="1.1" id="Layer_1" xmlns="http://www.w3.org/2000/svg" xmlns:xlink="http://www.w3.org/1999/xlink" x="0px" y="0px"
	 width="300px" height="300px" viewBox="0 0 300 300" enable-background="new 0 0 300 300" xml:space="preserve">
<circle fill="#B5A9AF" cx="150" cy="150" r="150"/>
<path fill="#BF7940" d="M165.8,53.4l-24.5-0.8l-27.4,24.6l-20.5,34.1l9.8,45.8l33.4,19.8c0,0.5,0,0.9,0,1.3
	c4.3,1.6,9.1,2.5,14.1,2.5c5,0.1,9.8-0.8,14.1-2.4c0-1.9,0-3.8,0-5.6l23.2-11.3l10.3-13.1l6.5-45.8L165.8,53.4z"/>
<path fill="#E6EDF0" d="M189.8,203.2c-0.4-0.2-0.9-0.4-1.3-0.6c-1.3-0.6-2.6-1.3-3.8-2.1c-0.1,0-0.1-0.1-0.2-0.1c0,0,0,0-0.1,0
	c-0.3-0.2-0.5-0.3-0.8-0.5c-0.1,0-0.2-0.1-0.2-0.1c-0.2-0.1-0.5-0.3-0.7-0.4c-0.1,0-0.1-0.1-0.2-0.1c-0.3-0.2-0.6-0.3-0.9-0.5
	c-0.2-0.1-0.4-0.2-0.6-0.3c-0.1,0-0.1-0.1-0.2-0.1c-1.6-1-3.4-2-5.2-3.1l0,0c-19,5.9-39.2,3.4-50,0.1l0,0c-1.7,1-3.4,2-5.1,3
	c-0.1,0.1-0.2,0.1-0.3,0.2c-0.2,0.1-0.3,0.2-0.5,0.3c-0.3,0.2-0.6,0.3-0.9,0.5c-0.1,0-0.1,0.1-0.2,0.1c-0.2,0.1-0.5,0.3-0.7,0.4
	c-0.1,0-0.2,0.1-0.2,0.1c-0.3,0.2-0.6,0.3-0.8,0.5c-0.2,0.1-0.4,0.3-0.7,0.4c0,0,0,0-0.1,0c-1,0.6-2,1.2-3.1,1.7
	c-14.8,7.2-35.7,8.2-41.9,18.9c-7.1,12.4-12.8,28-17.2,43.9C80.1,287,113.6,300,150,300c36.8,0,70.5-13.3,96.6-35.3
	c-4.3-15.4-10.1-30.9-17.5-44C223.2,210.2,204.3,209.6,189.8,203.2z"/>
<g>
	<path fill="#CB9263" d="M164.9,184.8c0-1.6,0-4,0-6.5c-4.3,1.6-9.1,2.5-14.1,2.5s-9.7-0.9-14.1-2.5c0,2.5,0,4.9,0,6.5
		c0,3.2-5.4,7-11,10.4c10.8,3.3,30.9,5.9,50-0.1C170.2,191.8,164.9,188,164.9,184.8z"/>
	<path fill="#CB9263" d="M184.5,200.4c-0.3-0.2-0.5-0.4-0.8-0.5C184,200.1,184.3,200.2,184.5,200.4z"/>
	<path fill="#CB9263" d="M117.2,200.4c-0.3,0.1-0.5,0.2-0.7,0.4C116.7,200.7,116.9,200.5,117.2,200.4z"/>
	<path fill="#CB9263" d="M118,199.9c-0.3,0.2-0.6,0.3-0.8,0.5C117.5,200.2,117.7,200.1,118,199.9z"/>
	<path fill="#CB9263" d="M195.7,90l-33.9-39.4l-36.2,2.7l-19.2,26.5l6.2,33.9l0.9,18.7c0,17,9.2,31.5,23.2,37.4
		c4.3,1.8,9,2.8,14.1,2.8c5.1,0,9.8-1,14.1-2.8c14-5.9,23.2-20.4,23.2-37.4l1-22c0-0.1,0-0.1-0.1-0.1L195.7,90z"/>
</g>
<path fill="#38302C" d="M151.3,37.8c-0.1,0-0.2,0-0.3,0C78.1,17.4,33.4,201.8,136.8,177c0-1.7,0-3.5,0-5
	c-16.2-6.2-26.9-22.7-26.9-42c0.4-6.3,1.4-11.7,2.8-16.3c9.3-30.6,37.1-28.1,38.1-51.1c4,20.8,30,22.1,38.3,47.8
	c0.6,1.8,1.1,3.8,1.5,5.9c0.5,2.9,0.9,6,1,9.4c3.9-7,6.4-14.2,7.6-21.3c2.7,2.9,3.5,7,3.2,10.9c-0.6,6.8-4.4,13.6-10.6,13.2
	l-0.1,1.5c0,19.4-10.7,35.8-26.8,41.9c0,0.3,0,0.5,0,0.8C242.9,166.1,218.3,33.6,151.3,37.8z"/>
</svg>
