<?xml version="1.0" encoding="utf-8"?>
<!-- Generator: Adobe Illustrator 25.2.0, SVG Export Plug-In . SVG Version: 6.00 Build 0)  -->
<svg version="1.1" id="Layer_1" xmlns="http://www.w3.org/2000/svg" xmlns:xlink="http://www.w3.org/1999/xlink" x="0px" y="0px"
	 width="300px" height="300px" viewBox="0 0 300 300" enable-background="new 0 0 300 300" xml:space="preserve">
<circle fill="#B5A9AF" cx="150" cy="150" r="150"/>
<path fill="#D5DBDE" d="M150,236.8c9.6-15.4,17.3-31.8,24.5-46.6l0,0c-5.4-3.3-10.4-7-10.4-10.1c0-1.4,0-3.5,0-5.8l0,0
	c0,1.9,0,4.2,0,6.3c-4.3,1.6-9.1,2.5-14.1,2.5s-9.7-0.9-14.1-2.5c0-0.1,0-0.2,0-0.2c-0.4,3.1-5.3,6.6-10.5,9.8l0,0
	C132.7,203.8,137.1,216.8,150,236.8z"/>
<path fill="#E6EDF0" d="M224.3,210.3L224.3,210.3c-7.2-5.5-18.5-6.8-32.1-11.7c-5.6-2-11.5-4.6-17.8-8.4
	c-7.2,14.7-14.9,31.2-24.5,46.6c-12.9-19.9-17.3-32.9-24.6-46.5l0,0c-21.7,13.2-42.2,13-52,21.8c-5.6,4.8-10.3,12.8-13.8,26.8
	c-1.8,7.2-3.8,15.9-5.7,26.4c26,21.7,59.5,34.8,96,34.8s70-13.1,96-34.8c-1.9-10.5-3.8-19.2-5.7-26.4
	C236.3,222.9,230.9,214.8,224.3,210.3z"/>
<g>
	<path fill="#FFC799" d="M188.5,109.2c0.2,1.1,0.5,2.1,0.7,3.2c0,0.1,0,0.2,0,0.4c1.7,8.5,1.6,16.1,1.6,18.1c0,0,0.1,0,0.1,0
		c0,0.4,0,0.6,0,0.6s0.1-0.1,0.1-0.2l-0.1,1.1c0,19.4-10.7,35.8-26.8,41.9c0,0,0,0.1,0,0.1c0,1.9,0,4.1,0,6.3
		c-4.4,1.6-9.1,2.5-14.1,2.5s-9.8-0.8-14.1-2.5c0,0,0-0.1,0-0.2c0-2.1,0-4.2,0-6.1c0,0,0-0.1,0-0.1c-16-6.1-26.7-22.5-26.7-41.9
		l-0.1-1c0-0.1,0-0.3,0-0.4c0,0,0.1,0,0.1,0c-0.1,0-0.2,0-0.2,0c0.4-4,1-7.7,1.7-11.1c0,0.1,0,0.3,0,0.4l0.1-0.7
		c0.3-1.5,0.6-3,0.9-4.4L188.5,109.2z"/>
	<path fill="#FFC799" d="M199.9,111c-2,6.3-4.9,13-8.8,19.9c5.6-0.4,9-6.8,9.5-13.2C200.8,115.5,200.6,113.2,199.9,111z"/>
</g>
<path fill="#FFDBBA" d="M188.2,108.5h-0.1l-1.3-4.1l-0.2-0.1h0.3c-2.7-7.6-7.2-14.6-14.7-17.8c-6.1-2.6-25.4-5.6-38.3-22
	c0.6,13.8-10.8,19.6-18.6,39.7l-0.1,0.1l-1.5,4.2v0.3c-0.7,2-1.2,4.1-1.8,6.4l0.9,19.6c0,17,9.2,31.5,23.2,37.4
	c4.3,1.8,9,2.8,14.1,2.8c5.1,0,9.8-1,14.1-2.8c14-5.9,23.2-20.4,23.2-37.4l1.2-25.6C188.3,109,188.3,108.7,188.2,108.5z"/>
<path fill="#3F3F3F" d="M116.1,123.3c0.6,2.1,2.3,3.8,4.9,4.9c2.4,1.1,5.6,1.7,8.7,1.7c2.7,0,5.3-0.4,7.3-1.3
	c5.9-2.6,9.4-11.8,10.3-16.3h5.4c0.9,4.5,4.4,13.7,10.3,16.3c2,0.9,4.6,1.3,7.3,1.3c3.1,0,6.3-0.6,8.7-1.7c2.5-1.2,4.2-2.9,4.9-4.9
	c0.9-3,3.1-10,0.2-14.8h4.1c-0.4-1.4-0.8-2.8-1.3-4.2H178c-6.4-1.6-18.3-0.8-23.1,2.7c-1.3,0.9-1.9,1.9-2.2,2.9h-5.5
	c-0.3-0.9-0.9-1.9-2.2-2.9c-4.8-3.5-16.6-4.3-23.1-2.7h-6.7c-0.5,1.3-1,2.7-1.5,4.2h2.1C113.1,113.3,115.2,120.3,116.1,123.3z
	 M156.4,109c4.7-3.4,18.7-3.9,23.1-1.6c4,2.1,4.6,6.8,2,15.2c-0.5,1.7-2.2,2.8-3.5,3.4c-4.3,2-10.7,1.8-14,0.3
	c-5.1-2.3-8.3-11.2-8.9-14.9C154.9,110.9,155,110,156.4,109z M120.5,107.4c1.8-0.9,5.2-1.4,8.9-1.4c5.4,0,11.5,1,14.2,3
	c1.4,1,1.4,1.9,1.3,2.5c-0.7,3.7-3.8,12.6-8.9,14.9c-3.2,1.4-9.6,1.6-14-0.3c-1.3-0.6-3-1.7-3.5-3.4
	C115.9,114.2,116.5,109.5,120.5,107.4z"/>
<path fill="#EB695E" d="M203.9,89.5L203.9,89.5l0-0.2c-0.1-0.8-0.3-1.7-0.4-2.5l-0.3-1.9l0,0C199.5,44,153.2,25.8,124.9,48
	c-38.8-0.5-32.1,79.5-16.6,114.3c-0.6-12.1-0.3-22.2,0.7-30.9c0-0.1,0-0.3,0-0.4c0.5-4,1.1-7.7,1.8-11.1c0.3-1.6,0.7-3.2,1-4.7
	c0.6-2.4,1.2-4.6,1.9-6.7c0.5-1.5,1-2.9,1.5-4.2c7.8-20.2,19.2-25.9,18.6-39.7c12.9,16.4,32.3,19.4,38.3,22
	c7.5,3.2,12,10.2,14.7,17.8c0.5,1.4,0.9,2.8,1.3,4.2c0.1,0.2,0.1,0.5,0.2,0.7c0.3,1.1,0.5,2.1,0.7,3.2c1.8,8.6,1.7,16.4,1.7,18.5
	c0,0.4,0,0.6,0,0.6c0-0.1,0.1-0.2,0.1-0.2c0.1-0.1,0.1-0.2,0.2-0.3c3.9-6.9,6.8-13.6,8.8-19.9c0,0,0-0.1,0-0.1l0.1,0
	c0.7,2.1,0.9,4.5,0.7,6.7c-0.5,6.4-3.9,12.7-9.5,13.2c-0.1,0.1-0.1,0.2-0.2,0.3l-0.1,1.1c0,19.3-10.7,35.8-26.8,41.9
	c0,2.2,0,4.3,0,5.8c0,3.1,5,6.8,10.4,10.1c6.2,3.8,12.2,6.4,17.8,8.4C186.9,168.9,210.2,131.2,203.9,89.5z"/>
</svg>
