<?xml version="1.0" encoding="utf-8"?>
<!-- Generator: Adobe Illustrator 25.2.0, SVG Export Plug-In . SVG Version: 6.00 Build 0)  -->
<svg version="1.1" id="Layer_1" xmlns="http://www.w3.org/2000/svg" xmlns:xlink="http://www.w3.org/1999/xlink" x="0px" y="0px"
	 viewBox="0 0 30 30" style="enable-background:new 0 0 30 30;" xml:space="preserve">
<style type="text/css">
	.st0{fill:#4D4D4D;}
</style>
<g>
	<path class="st0" d="M13.2,18.9c-4.8-0.7-5.8-0.4-9.2,0.6c-1.5,0.4-2.3-0.1-2.3-1.1v-4.7c0-1.6,0.8-2,1.6-2.4
		C8,9.7,8.9,10,13.9,10.7l1.1,0.1l1.4,0.2c5.6,0.8,5.8,0.6,9.5-0.5c1.6-0.4,2.3,0,2.3,1.4v4.4c0,1.6-0.8,2-1.6,2.4
		C22,20.3,21.1,20,16,19.3l-1-0.1L13.2,18.9z"/>
</g>
</svg>
