<?xml version="1.0" encoding="utf-8"?>
<!-- Generator: Adobe Illustrator 25.2.0, SVG Export Plug-In . SVG Version: 6.00 Build 0)  -->
<svg version="1.1" id="Layer_1" xmlns="http://www.w3.org/2000/svg" xmlns:xlink="http://www.w3.org/1999/xlink" x="0px" y="0px"
	viewBox="0 0 30 30" enable-background="new 0 0 30 30" xml:space="preserve">
<g>
	<path fill="#4D4D4D" d="M12.66,20.68c-0.84,0-1.34-0.5-1.17-1.38c1-5.68,5.18-5.1,6.06-9.36c0.25-1.25-0.42-2.76-2.05-2.76
		c-1.96,0-2.93,1.09-3.22,2.8c-0.13,0.84-0.54,1.21-1.38,1.04L6.14,9.99C5.39,9.82,5.01,9.36,5.05,8.61C5.3,5.6,6.89,0,15.5,0
		c9.36,0,9.69,7.4,9.65,8.65c0,6.94-4.85,7.52-6.35,10.99c-0.29,0.71-0.67,1.04-1.42,1.04H12.66z M12.53,22.81
		c-0.79,0-1.25,0.42-1.25,1.25v4.68c0,0.79,0.46,1.25,1.25,1.25h4.68c0.84,0,1.25-0.46,1.25-1.25v-4.68c0-0.84-0.42-1.25-1.25-1.25
		H12.53z"/>
</g>
</svg>
