<?xml version="1.0" encoding="utf-8"?>
<!-- Generator: Adobe Illustrator 25.2.0, SVG Export Plug-In . SVG Version: 6.00 Build 0)  -->
<svg version="1.1" id="Layer_1" xmlns="http://www.w3.org/2000/svg" xmlns:xlink="http://www.w3.org/1999/xlink" x="0px" y="0px"
	 viewBox="0 0 20 30" style="enable-background:new 0 0 20 30;" xml:space="preserve">
<g>
	<path d="M19.5,17.8c0.7,0.6,0.7,1.2,0,1.8l-1.2,1.2c-0.6,0.7-1.2,0.7-1.8,0l-6.2-6.1c-0.1-0.2-0.3-0.2-0.5,0l-6.2,6.1
		c-0.5,0.7-1.2,0.7-1.8,0l-1.2-1.2c-0.7-0.7-0.6-1.3,0-1.8l8.6-8.6c0.6-0.6,1.1-0.6,1.8,0L19.5,17.8z"/>
	<path d="M19.5,26.5c0.7,0.6,0.7,1.2,0,1.8l-1.2,1.2c-0.6,0.7-1.2,0.7-1.8,0l-6.2-6.1c-0.1-0.2-0.3-0.2-0.5,0l-6.2,6.1
		c-0.5,0.7-1.2,0.7-1.8,0l-1.2-1.2c-0.7-0.7-0.6-1.3,0-1.8l8.6-8.6c0.6-0.6,1.1-0.6,1.8,0L19.5,26.5z"/>
	<path d="M19.5,9c0.7,0.6,0.7,1.2,0,1.9l-1.2,1.2c-0.6,0.6-1.2,0.6-1.8,0L10.2,6c-0.1-0.2-0.3-0.2-0.5,0l-6.2,6.1
		c-0.5,0.6-1.2,0.6-1.8,0L0.5,11c-0.7-0.7-0.6-1.3,0-1.9l8.6-8.6c0.6-0.6,1.1-0.6,1.8,0L19.5,9z"/>
</g>
</svg>
