<?xml version="1.0" encoding="utf-8"?>
<!-- Generator: Adobe Illustrator 25.2.0, SVG Export Plug-In . SVG Version: 6.00 Build 0)  -->
<svg version="1.1" id="Layer_1" xmlns="http://www.w3.org/2000/svg" xmlns:xlink="http://www.w3.org/1999/xlink" x="0px" y="0px"
	 width="227.38px" height="104.65px" viewBox="0 0 227.38 104.65" enable-background="new 0 0 227.38 104.65" xml:space="preserve">
<g>
	<path fill="#DBD7E2" d="M0,50.25l9.2-9.2v9.2H0z M0,61.14v-9.2h9.2v9.2H0z M0,72.02v-9.2h9.2v9.2H0z M0,82.81v-9.2h9.2v9.2H0z
		 M9.2,93.69L0,84.49h9.2V93.69z M10.88,50.25v-9.2h9.2v9.2H10.88z M10.88,93.69v-9.2h9.2v9.2H10.88z M21.68,50.25v-9.2h9.2v9.2
		H21.68z M21.68,93.69v-9.2h9.2v9.2H21.68z M30.88,104.65l-9.2-9.2h9.2V104.65z M32.56,41.06l9.2,9.2h-9.2V41.06z M32.56,61.14v-9.2
		h9.2v9.2H32.56z M32.56,72.02v-9.2h9.2v9.2H32.56z M32.56,82.81v-9.2h9.2v9.2H32.56z M41.76,84.49l-9.2,9.2v-9.2H41.76z"/>
	<path fill="#DBD7E2" d="M48.49,50.25v-9.2h9.2v9.2H48.49z M48.49,61.14v-9.2h9.2v9.2H48.49z M48.49,71.94v-9.12h9.2v9.12H48.49z
		 M48.49,82.81v-9.2h9.2v9.2H48.49z M57.69,93.69l-9.2-9.2h9.2V93.69z M59.37,93.69v-9.2h9.2v9.2H59.37z M70.25,93.69v-9.2h9.12v9.2
		H70.25z M81.05,50.25v-9.2h9.2v9.2H81.05z M81.05,61.14v-9.2h9.2v9.2H81.05z M81.05,71.94v-9.12h9.2v9.12H81.05z M81.05,82.81v-9.2
		h9.2v9.2H81.05z M90.25,84.49l-9.2,9.2v-9.2H90.25z"/>
	<path fill="#DBD7E2" d="M97.26,50.18v-9.2h9.2v9.2H97.26z M97.26,60.98v-9.2h9.2v9.2H97.26z M97.26,71.85v-9.2h9.2v9.2H97.26z
		 M97.26,82.73v-9.2h9.2v9.2H97.26z M97.26,93.53v-9.2h9.2v9.2H97.26z M108.14,50.18v-9.2h9.2v9.2H108.14z M108.14,71.85v-9.2h9.2
		v9.2H108.14z M108.14,93.53v-9.2h9.2v9.2H108.14z M118.94,50.18v-9.2h9.2v9.2H118.94z M118.94,71.85v-9.2h9.2v9.2H118.94z
		 M118.94,93.53v-9.2h9.2v9.2H118.94z M129.82,50.18v-9.2h9.2v9.2H129.82z M129.82,93.53v-9.2h9.2v9.2H129.82z"/>
	<path fill="#DBD7E2" d="M145.54,50.18l9.2-9.12v9.12H145.54z M154.74,72.02l-9.2-9.2h9.2V72.02z M145.62,61.06v-9.12h9.12v9.12
		H145.62z M154.74,93.69l-9.12-9.12h9.12V93.69z M156.5,50.18v-9.12h9.12v9.12H156.5z M156.5,71.94v-9.12h9.12v9.12H156.5z
		 M156.5,93.69v-9.12h9.12v9.12H156.5z M167.3,50.18v-9.12h9.12v9.12H167.3z M167.3,71.94v-9.12h9.12v9.12H167.3z M167.3,93.69
		v-9.12h9.12v9.12H167.3z M178.18,41.06l9.2,9.12h-9.2V41.06z M178.18,62.81l9.2,9.12h-9.2V62.81z M178.18,82.81v-9.12h9.12v9.12
		H178.18z M187.3,84.57l-9.12,9.12v-9.12H187.3z"/>
	<path fill="#DBD7E2" d="M196.5,50.25v-9.2h9.2v9.2H196.5z M207.38,50.25v-9.2h9.2v9.2H207.38z M207.38,61.14v-9.2h9.2v9.2H207.38z
		 M207.38,71.94v-9.2h9.2v9.2H207.38z M207.38,82.81v-9.2h9.2v9.2H207.38z M207.38,93.69v-9.2h9.2v9.2H207.38z M218.18,50.25v-9.2
		h9.2v9.2H218.18z"/>
</g>
<g>
	<path fill="#FAC93F" d="M3.12,28.85c-0.98,0-1.41-0.43-1.41-1.41V2c0-0.98,0.43-1.41,1.41-1.41h17.5c0.98,0,1.41,0.43,1.41,1.41
		v4.67c0,0.98-0.43,1.41-1.41,1.41H10.62v4.08h6.83c0.98,0,1.41,0.43,1.41,1.41v4.71c0,0.98-0.43,1.41-1.41,1.41h-6.83v7.73
		c0,0.98-0.43,1.41-1.41,1.41H3.12z"/>
	<path fill="#FAC93F" d="M37.36,29.43c-9.81,0-12.21-3.22-12.21-8.01V8.05C25.15,3.26,27.54,0,37.36,0s12.17,3.26,12.17,8.05v13.38
		C49.52,26.22,47.17,29.43,37.36,29.43z M37.36,21.86c2.87,0,3.3-0.78,3.3-1.84V9.46c0-1.02-0.43-1.81-3.3-1.81
		c-2.83,0-3.3,0.78-3.3,1.81v10.56C34.06,21.08,34.53,21.86,37.36,21.86z"/>
	<path fill="#FAC93F" d="M65.41,29.43c-9.73,0-12.13-3.22-12.13-8.01V2c0-0.98,0.43-1.41,1.41-1.41h6.16c0.98,0,1.41,0.43,1.41,1.41
		v17.9c0,1.06,0.47,1.84,3.22,1.84c2.79,0,3.26-0.78,3.26-1.84V2c0-0.98,0.39-1.41,1.41-1.41h5.96c0.98,0,1.41,0.43,1.41,1.41v19.43
		C77.54,26.22,75.15,29.43,65.41,29.43z"/>
	<path fill="#FAC93F" d="M83.02,28.85c-0.98,0-1.41-0.43-1.41-1.41V2c0-0.98,0.43-1.41,1.41-1.41h4.08c1.02,0,1.65,0.27,2.32,1.06
		l7.61,8.71V2c0-0.98,0.43-1.41,1.41-1.41h5.89c0.98,0,1.41,0.43,1.41,1.41v25.43c0,0.98-0.43,1.41-1.41,1.41h-5.89
		c-0.98,0-1.41-0.43-1.41-1.41v-4.83l-6.71-8.12v12.95c0,0.98-0.43,1.41-1.41,1.41H83.02z"/>
	<path fill="#FAC93F" d="M111.35,28.85c-0.98,0-1.41-0.43-1.41-1.41V2c0-0.98,0.43-1.41,1.41-1.41h13.23c6.59,0,9.65,2.55,9.65,8.01
		v12.25c0,5.46-3.06,8.01-9.65,8.01H111.35z M118.85,21.43h4.67c1.26,0,1.84-0.59,1.84-1.92V9.97c0-1.3-0.59-1.88-1.84-1.88h-4.67
		V21.43z"/>
	<path fill="#FAC93F" d="M139.54,28.85c-0.98,0-1.41-0.43-1.41-1.41V2c0-0.98,0.43-1.41,1.41-1.41h18.21c0.98,0,1.41,0.43,1.41,1.41
		v4.59c0,0.98-0.43,1.41-1.41,1.41h-10.83v3.02h7.65c0.98,0,1.41,0.43,1.41,1.41v4.2c0,0.98-0.43,1.41-1.41,1.41h-7.65v3.38h10.83
		c0.98,0,1.41,0.43,1.41,1.41v4.59c0,0.98-0.43,1.41-1.41,1.41H139.54z"/>
	<path fill="#FAC93F" d="M164.23,28.85c-0.98,0-1.41-0.43-1.41-1.41V2c0-0.98,0.43-1.41,1.41-1.41h13.07c5.89,0,7.73,2.67,7.73,6.55
		v1.81c0,2.2-0.55,3.77-2.2,4.47c2.86,0.31,4.75,2.39,4.75,5.69v8.32c0,0.98-0.43,1.41-1.41,1.41h-6.08c-0.98,0-1.41-0.43-1.41-1.41
		v-6c0-1.18-0.39-1.69-1.49-1.69h-5.5v7.69c0,0.98-0.43,1.41-1.41,1.41H164.23z M171.68,12.68h2.94c1.37,0,1.73-0.79,1.73-1.84V9.5
		c0-1.06-0.35-1.84-1.73-1.84h-2.94V12.68z"/>
	<path fill="#FAC93F" d="M191.92,15.31c-0.98,0-1.41-0.39-1.41-1.41v-1.57c0-0.98,0.43-1.41,1.41-1.41h2.71
		c0.71,0,1.06-0.39,1.06-1.1V9.22h-4.28c-0.98,0-1.41-0.43-1.41-1.41V2c0-0.98,0.43-1.41,1.41-1.41h7.93c0.98,0,1.41,0.43,1.41,1.41
		v7.38c0,4-2.28,5.93-5.81,5.93H191.92z"/>
	<path fill="#FAC93F" d="M205.55,28.85c-0.98,0-1.41-0.43-1.41-1.41v-4.59c0-0.98,0.43-1.41,1.41-1.41h10.56
		c0.67,0,1.02-0.51,1.02-1.14c0-0.9-0.35-1.26-1.02-1.33l-5.89-0.82c-3.69-0.55-6.08-2.12-6.08-6.52V7.5c0-4.47,3.02-6.91,8.12-6.91
		h10.99c0.98,0,1.41,0.43,1.41,1.41v4.67c0,0.98-0.43,1.41-1.41,1.41h-9.14c-0.67,0-1.06,0.47-1.06,1.18s0.39,1.18,1.06,1.26
		l5.85,0.78c3.69,0.55,6.12,2.12,6.12,6.52v4.12c0,4.47-3.06,6.91-8.12,6.91H205.55z"/>
</g>
</svg>
