<?xml version="1.0" encoding="utf-8"?>
<!-- Generator: Adobe Illustrator 25.2.0, SVG Export Plug-In . SVG Version: 6.00 Build 0)  -->
<svg version="1.1" id="Layer_1" xmlns="http://www.w3.org/2000/svg" xmlns:xlink="http://www.w3.org/1999/xlink" x="0px" y="0px"
	 width="452.4px" height="63.6px" viewBox="0 0 452.4 63.6" style="enable-background:new 0 0 452.4 63.6;" xml:space="preserve">
<style type="text/css">
	.st0{fill:#DBD7E2;}
	.st1{fill:#7C7079;}
</style>
<g>
	<g>
		<path class="st0" d="M220.8,11.2V0.1h11.1v11.1H220.8z M233.9,11.2V0.1H245v11.1H233.9z M233.9,24.3V13.2H245v11.1H233.9z
			 M233.9,37.3V26.3H245v11.1H233.9z M233.9,50.5V39.4H245v11.1H233.9z M233.9,63.6V52.5H245v11.1H233.9z M247,11.2V0.1h11.1v11.1
			H247z"/>
		<path class="st0" d="M265.6,11.2V0.1h11.1v11.1H265.6z M265.6,24.3V13.2h11.1v11.1H265.6z M265.6,37.3V26.3h11.1v11.1H265.6z
			 M265.6,50.5V39.4h11.1v11.1H265.6z M265.6,63.6V52.5h11.1v11.1H265.6z M278.7,11.2V0.1h11.1v11.1H278.7z M278.7,37.3V26.3h11.1
			v11.1H278.7z M291.8,11.2V0.1h11v11.1H291.8z M291.8,37.3V26.3h11v11.1H291.8z M302.8,50.5l-11-11.1h11V50.5z M304.9,0.1L316,11.2
			h-11.1V0.1z M304.9,24.3V13.2H316v11.1H304.9z M316,26.3l-11.1,11.1V26.3H316z M304.9,39.4L316,50.5h-11.1V39.4z M304.9,63.6V52.5
			H316v11.1H304.9z"/>
		<path class="st0" d="M323.7,11.3l11.1-11.1v11.1H323.7z M323.7,24.3V13.2h11.1v11.1H323.7z M323.7,37.4V26.3h11.1v11.1H323.7z
			 M323.7,50.6V39.5h11.1v11.1H323.7z M323.7,63.6V52.5h11.1v11.1H323.7z M336.9,11.3V0.2H348v11.1H336.9z M336.9,37.4V26.3H348
			v11.1H336.9z M350,11.3V0.2h11.1v11.1H350z M350,37.4V26.3h11.1v11.1H350z M363,0.2l11.1,11.1H363V0.2z M363,24.3V13.2h11.1v11.1
			H363z M363,37.4V26.3h11.1v11.1H363z M363,50.6V39.5h11.1v11.1H363z M363,63.6V52.5h11.1v11.1H363z"/>
		<path class="st0" d="M382.9,11.1V0H394v11.1H382.9z M382.9,24.2V13.1H394v11.1H382.9z M382.9,37.3V26.3H394v11.1H382.9z
			 M382.9,50.4V39.3H394v11.1H382.9z M382.9,63.5V52.4H394v11.1H382.9z"/>
		<path class="st0" d="M402,11.2V0.1h11.1v11.1H402z M402,24.3V13.2h11.1v11.1H402z M402,37.4V26.3h11.1v11.1H402z M402,50.5V39.4
			h11.1v11.1H402z M413.1,63.6L402,52.5h11.1V63.6z M415,63.6V52.5h11.1v11.1H415z M428.2,63.6V52.5h11.1v11.1H428.2z M441.3,63.6
			V52.5h11.1v11.1H441.3z"/>
	</g>
	<g>
		<path class="st1" d="M1.6,52.4c-1.1,0-1.6-0.5-1.6-1.6v-5.3c0-1.1,0.5-1.6,1.6-1.6h12.2c0.8,0,1.2-0.6,1.2-1.3
			c0-1-0.4-1.4-1.2-1.5L7,40c-4.3-0.6-7-2.4-7-7.5v-4.8c0-5.2,3.5-8,9.4-8h12.7c1.1,0,1.6,0.5,1.6,1.6v5.4c0,1.1-0.5,1.6-1.6,1.6
			H11.5c-0.8,0-1.2,0.5-1.2,1.4c0,0.8,0.5,1.4,1.2,1.4l6.7,0.9c4.3,0.6,7.1,2.4,7.1,7.5v4.8c0,5.2-3.5,8-9.4,8H1.6z"/>
		<path class="st1" d="M37.5,52.4c-1.1,0-1.6-0.5-1.6-1.6V28.5h-6.7c-1.1,0-1.6-0.5-1.6-1.6v-5.5c0-1.1,0.5-1.6,1.6-1.6h23.9
			c1.1,0,1.6,0.5,1.6,1.6v5.5c0,1.1-0.5,1.6-1.6,1.6h-6.7v22.2c0,1.1-0.5,1.6-1.6,1.6H37.5z"/>
		<path class="st1" d="M64.9,52.4h-6.7c-1.1,0-1.6-0.5-1.6-1.6v-12c0-1.8,0.5-4.1,1.8-7.2l3.9-10.3c0.4-1,1.1-1.5,2.3-1.5h12.2
			c1.2,0,1.9,0.5,2.3,1.5L83,31.5c1.2,3.2,1.8,5.4,1.8,7.2v12c0,1.1-0.5,1.6-1.6,1.6h-6.8c-1.2,0-1.8-0.5-1.8-1.6v-6.3h-8v6.3
			C66.5,51.9,66,52.4,64.9,52.4z M67,36.2h7.1L72,29.3c-0.2-0.5-0.5-0.8-0.9-0.8H70c-0.4,0-0.6,0.2-0.9,0.8L67,36.2z"/>
		<path class="st1" d="M90.7,52.4c-1.1,0-1.6-0.5-1.6-1.6V21.4c0-1.1,0.5-1.6,1.6-1.6h15.1c6.8,0,8.9,3.1,8.9,7.6v2.1
			c0,2.5-0.6,4.3-2.5,5.2c3.3,0.4,5.5,2.8,5.5,6.6v9.6c0,1.1-0.5,1.6-1.6,1.6h-7c-1.1,0-1.6-0.5-1.6-1.6v-6.9c0-1.4-0.5-1.9-1.7-1.9
			h-6.3v8.9c0,1.1-0.5,1.6-1.6,1.6H90.7z M99.3,33.7h3.4c1.6,0,2-0.9,2-2.1v-1.5c0-1.2-0.4-2.1-2-2.1h-3.4V33.7z"/>
		<path class="st1" d="M129.3,52.4c-1.1,0-1.6-0.5-1.6-1.6V28.5H121c-1.1,0-1.6-0.5-1.6-1.6v-5.5c0-1.1,0.5-1.6,1.6-1.6h23.9
			c1.1,0,1.6,0.5,1.6,1.6v5.5c0,1.1-0.5,1.6-1.6,1.6h-6.7v22.2c0,1.1-0.5,1.6-1.6,1.6H129.3z"/>
		<path class="st1" d="M164.2,53.1c-11.2,0-14-3.7-14-9.2V21.4c0-1.1,0.5-1.6,1.6-1.6h7.1c1.1,0,1.6,0.5,1.6,1.6v20.6
			c0,1.2,0.5,2.1,3.7,2.1c3.2,0,3.8-0.9,3.8-2.1V21.4c0-1.1,0.5-1.6,1.6-1.6h6.9c1.1,0,1.6,0.5,1.6,1.6v22.4
			C178.2,49.3,175.4,53.1,164.2,53.1z"/>
		<path class="st1" d="M184.5,52.4c-1.1,0-1.6-0.5-1.6-1.6V21.4c0-1.1,0.5-1.6,1.6-1.6h13.9c8.2,0,10.7,3.6,10.7,8.8v5.8
			c0,5.3-2.4,8.8-10.7,8.8h-5.2v7.5c0,1.1-0.5,1.6-1.6,1.6H184.5z M193,35.1h4.1c1.8,0,2.1-1,2.1-2.2v-2.4c0-1.2-0.4-2.2-2.1-2.2
			H193V35.1z"/>
	</g>
</g>
</svg>
