<?xml version="1.0" encoding="utf-8"?>
<!-- Generator: Adobe Illustrator 25.2.0, SVG Export Plug-In . SVG Version: 6.00 Build 0)  -->
<svg version="1.1" id="Layer_1" xmlns="http://www.w3.org/2000/svg" xmlns:xlink="http://www.w3.org/1999/xlink" x="0px" y="0px"
	 viewBox="0 0 467.61 63.6" enable-background="new 0 0 467.61 63.6" xml:space="preserve">
<g>
	<path fill="#DBD7E2" d="M240.23,9.2l9.2-9.2v9.2H240.23z M240.23,20.08v-9.2h9.2v9.2H240.23z M240.23,30.96v-9.2h9.2v9.2H240.23z
		 M240.23,41.76v-9.2h9.2v9.2H240.23z M249.43,52.64l-9.2-9.2h9.2V52.64z M251.11,9.2V0h9.2v9.2H251.11z M251.11,52.64v-9.2h9.2v9.2
		H251.11z M261.91,9.2V0h9.2v9.2H261.91z M261.91,52.64v-9.2h9.2v9.2H261.91z M271.11,63.6l-9.2-9.2h9.2V63.6z M272.79,0l9.2,9.2
		h-9.2V0z M272.79,20.08v-9.2h9.2v9.2H272.79z M272.79,30.96v-9.2h9.2v9.2H272.79z M272.79,41.76v-9.2h9.2v9.2H272.79z
		 M281.99,43.44l-9.2,9.2v-9.2H281.99z"/>
	<path fill="#DBD7E2" d="M288.72,9.2V0h9.2v9.2H288.72z M288.72,20.08v-9.2h9.2v9.2H288.72z M288.72,30.88v-9.12h9.2v9.12H288.72z
		 M288.72,41.76v-9.2h9.2v9.2H288.72z M297.92,52.64l-9.2-9.2h9.2V52.64z M299.6,52.64v-9.2h9.2v9.2H299.6z M310.48,52.64v-9.2h9.12
		v9.2H310.48z M321.28,9.2V0h9.2v9.2H321.28z M321.28,20.08v-9.2h9.2v9.2H321.28z M321.28,30.88v-9.12h9.2v9.12H321.28z
		 M321.28,41.76v-9.2h9.2v9.2H321.28z M330.48,43.44l-9.2,9.2v-9.2H330.48z"/>
	<path fill="#DBD7E2" d="M337.49,9.12v-9.2h9.2v9.2H337.49z M337.49,19.92v-9.2h9.2v9.2H337.49z M337.49,30.8v-9.2h9.2v9.2H337.49z
		 M337.49,41.68v-9.2h9.2v9.2H337.49z M337.49,52.48v-9.2h9.2v9.2H337.49z M348.37,9.12v-9.2h9.2v9.2H348.37z M348.37,30.8v-9.2h9.2
		v9.2H348.37z M348.37,52.48v-9.2h9.2v9.2H348.37z M359.17,9.12v-9.2h9.2v9.2H359.17z M359.17,30.8v-9.2h9.2v9.2H359.17z
		 M359.17,52.48v-9.2h9.2v9.2H359.17z M370.05,9.12v-9.2h9.2v9.2H370.05z M370.05,52.48v-9.2h9.2v9.2H370.05z"/>
	<path fill="#DBD7E2" d="M385.77,9.12l9.2-9.12v9.12H385.77z M394.97,30.96l-9.2-9.2h9.2V30.96z M385.85,20v-9.12h9.12V20H385.85z
		 M394.97,52.64l-9.12-9.12h9.12V52.64z M396.73,9.12V0h9.12v9.12H396.73z M396.73,30.88v-9.12h9.12v9.12H396.73z M396.73,52.64
		v-9.12h9.12v9.12H396.73z M407.53,9.12V0h9.12v9.12H407.53z M407.53,30.88v-9.12h9.12v9.12H407.53z M407.53,52.64v-9.12h9.12v9.12
		H407.53z M418.41,0l9.2,9.12h-9.2V0z M418.41,21.76l9.2,9.12h-9.2V21.76z M418.41,41.76v-9.12h9.12v9.12H418.41z M427.53,43.52
		l-9.12,9.12v-9.12H427.53z"/>
	<path fill="#DBD7E2" d="M436.73,9.2V0h9.2v9.2H436.73z M447.61,9.2V0h9.2v9.2H447.61z M447.61,20.08v-9.2h9.2v9.2H447.61z
		 M447.61,30.88v-9.2h9.2v9.2H447.61z M447.61,41.76v-9.2h9.2v9.2H447.61z M447.61,52.64v-9.2h9.2v9.2H447.61z M458.41,9.2V0h9.2
		v9.2H458.41z"/>
</g>
<g>
	<path fill="#7C7079" d="M1.41,40.87C0.43,40.87,0,40.44,0,39.46V14.03c0-0.98,0.43-1.41,1.41-1.41h17.5c0.98,0,1.41,0.43,1.41,1.41
		v4.67c0,0.98-0.43,1.41-1.41,1.41H8.91v4.08h6.83c0.98,0,1.41,0.43,1.41,1.41v4.71c0,0.98-0.43,1.41-1.41,1.41H8.91v7.73
		c0,0.98-0.43,1.41-1.41,1.41H1.41z"/>
	<path fill="#7C7079" d="M35.65,41.46c-9.81,0-12.21-3.22-12.21-8.01V20.07c0-4.79,2.39-8.05,12.21-8.05s12.17,3.26,12.17,8.05
		v13.38C47.81,38.25,45.46,41.46,35.65,41.46z M35.65,33.89c2.87,0,3.3-0.79,3.3-1.84V21.49c0-1.02-0.43-1.81-3.3-1.81
		c-2.83,0-3.3,0.78-3.3,1.81v10.56C32.35,33.1,32.82,33.89,35.65,33.89z"/>
	<path fill="#7C7079" d="M63.71,41.46c-9.73,0-12.13-3.22-12.13-8.01V14.03c0-0.98,0.43-1.41,1.41-1.41h6.16
		c0.98,0,1.41,0.43,1.41,1.41v17.9c0,1.06,0.47,1.84,3.22,1.84c2.79,0,3.26-0.78,3.26-1.84v-17.9c0-0.98,0.39-1.41,1.41-1.41h5.96
		c0.98,0,1.41,0.43,1.41,1.41v19.43C75.83,38.25,73.44,41.46,63.71,41.46z"/>
	<path fill="#7C7079" d="M81.31,40.87c-0.98,0-1.41-0.43-1.41-1.41V14.03c0-0.98,0.43-1.41,1.41-1.41h4.08
		c1.02,0,1.65,0.27,2.32,1.06l7.61,8.71v-8.36c0-0.98,0.43-1.41,1.41-1.41h5.89c0.98,0,1.41,0.43,1.41,1.41v25.43
		c0,0.98-0.43,1.41-1.41,1.41h-5.89c-0.98,0-1.41-0.43-1.41-1.41v-4.83l-6.71-8.12v12.95c0,0.98-0.43,1.41-1.41,1.41H81.31z"/>
	<path fill="#7C7079" d="M109.65,40.87c-0.98,0-1.41-0.43-1.41-1.41V14.03c0-0.98,0.43-1.41,1.41-1.41h13.23
		c6.59,0,9.65,2.55,9.65,8.01v12.24c0,5.46-3.06,8.01-9.65,8.01H109.65z M117.14,33.46h4.67c1.26,0,1.84-0.59,1.84-1.92V22
		c0-1.3-0.59-1.88-1.84-1.88h-4.67V33.46z"/>
	<path fill="#7C7079" d="M137.83,40.87c-0.98,0-1.41-0.43-1.41-1.41V14.03c0-0.98,0.43-1.41,1.41-1.41h18.21
		c0.98,0,1.41,0.43,1.41,1.41v4.59c0,0.98-0.43,1.41-1.41,1.41h-10.83v3.02h7.65c0.98,0,1.41,0.43,1.41,1.41v4.2
		c0,0.98-0.43,1.41-1.41,1.41h-7.65v3.38h10.83c0.98,0,1.41,0.43,1.41,1.41v4.59c0,0.98-0.43,1.41-1.41,1.41H137.83z"/>
	<path fill="#7C7079" d="M162.52,40.87c-0.98,0-1.41-0.43-1.41-1.41V14.03c0-0.98,0.43-1.41,1.41-1.41h13.07
		c5.89,0,7.73,2.67,7.73,6.55v1.81c0,2.2-0.55,3.77-2.2,4.47c2.86,0.31,4.75,2.39,4.75,5.69v8.32c0,0.98-0.43,1.41-1.41,1.41h-6.08
		c-0.98,0-1.41-0.43-1.41-1.41v-6c0-1.18-0.39-1.69-1.49-1.69h-5.5v7.69c0,0.98-0.43,1.41-1.41,1.41H162.52z M169.97,24.71h2.94
		c1.37,0,1.73-0.79,1.73-1.84v-1.33c0-1.06-0.35-1.84-1.73-1.84h-2.94V24.71z"/>
	<path fill="#7C7079" d="M190.21,27.34c-0.98,0-1.41-0.39-1.41-1.41v-1.57c0-0.98,0.43-1.41,1.41-1.41h2.71
		c0.71,0,1.06-0.39,1.06-1.1v-0.59h-4.28c-0.98,0-1.41-0.43-1.41-1.41v-5.81c0-0.98,0.43-1.41,1.41-1.41h7.93
		c0.98,0,1.41,0.43,1.41,1.41v7.38c0,4-2.28,5.93-5.81,5.93H190.21z"/>
	<path fill="#7C7079" d="M203.84,40.87c-0.98,0-1.41-0.43-1.41-1.41v-4.59c0-0.98,0.43-1.41,1.41-1.41h10.56
		c0.67,0,1.02-0.51,1.02-1.14c0-0.9-0.35-1.26-1.02-1.33l-5.89-0.82c-3.69-0.55-6.08-2.12-6.08-6.52v-4.12
		c0-4.47,3.02-6.91,8.12-6.91h10.99c0.98,0,1.41,0.43,1.41,1.41v4.67c0,0.98-0.43,1.41-1.41,1.41h-9.14c-0.67,0-1.06,0.47-1.06,1.18
		s0.39,1.18,1.06,1.26l5.85,0.78c3.69,0.55,6.12,2.12,6.12,6.52v4.12c0,4.47-3.06,6.91-8.12,6.91H203.84z"/>
</g>
</svg>
