<?xml version="1.0" encoding="utf-8"?>
<!-- Generator: Adobe Illustrator 25.2.0, SVG Export Plug-In . SVG Version: 6.00 Build 0)  -->
<svg version="1.1" id="Layer_1" xmlns="http://www.w3.org/2000/svg" xmlns:xlink="http://www.w3.org/1999/xlink" x="0px" y="0px"
	 width="224.4px" height="104.7px" viewBox="0 0 224.4 104.7" style="enable-background:new 0 0 224.4 104.7;" xml:space="preserve"
	>
<style type="text/css">
	.st0{fill:#DBD7E2;}
	.st1{fill:#FAC93F;}
</style>
<g>
	<g>
		<path class="st0" d="M0,53.9V43.1h10.8v10.8H0z M12.7,53.9V43.1h10.8v10.8H12.7z M12.7,66.6V55.8h10.8v10.8H12.7z M12.7,79.2V68.5
			h10.8v10.8H12.7z M12.7,91.9V81.2h10.8v10.8H12.7z M12.7,104.7V93.9h10.8v10.8H12.7z M25.3,53.9V43.1h10.8v10.8H25.3z"/>
		<path class="st0" d="M43.4,53.9V43.1h10.8v10.8H43.4z M43.4,66.6V55.8h10.8v10.8H43.4z M43.4,79.2V68.5h10.8v10.8H43.4z
			 M43.4,91.9V81.2h10.8v10.8H43.4z M43.4,104.7V93.9h10.8v10.8H43.4z M56.1,53.9V43.1h10.8v10.8H56.1z M56.1,79.2V68.5h10.8v10.8
			H56.1z M68.8,53.9V43.1h10.7v10.8H68.8z M68.8,79.2V68.5h10.7v10.8H68.8z M79.5,91.9L68.8,81.2h10.7V91.9z M81.5,43.1l10.8,10.8
			H81.5V43.1z M81.5,66.6V55.8h10.8v10.8H81.5z M92.2,68.5L81.5,79.2V68.5H92.2z M81.5,81.2l10.8,10.8H81.5V81.2z M81.5,104.7V93.9
			h10.8v10.8H81.5z"/>
		<path class="st0" d="M99.7,54l10.8-10.8V54H99.7z M99.7,66.6V55.8h10.8v10.8H99.7z M99.7,79.3V68.6h10.8v10.8H99.7z M99.7,92V81.3
			h10.8V92H99.7z M99.7,104.7V93.9h10.8v10.8H99.7z M112.5,54V43.2h10.8V54H112.5z M112.5,79.3V68.6h10.8v10.8H112.5z M125.2,54
			V43.2h10.8V54H125.2z M125.2,79.3V68.6h10.8v10.8H125.2z M137.8,43.2L148.6,54h-10.8V43.2z M137.8,66.6V55.8h10.8v10.8H137.8z
			 M137.8,79.3V68.6h10.8v10.8H137.8z M137.8,92V81.3h10.8V92H137.8z M137.8,104.7V93.9h10.8v10.8H137.8z"/>
		<path class="st0" d="M157.1,53.8V43h10.8v10.8H157.1z M157.1,66.5V55.7h10.8v10.8H157.1z M157.1,79.2V68.5h10.8v10.8H157.1z
			 M157.1,91.8V81.1h10.8v10.8H157.1z M157.1,104.6V93.8h10.8v10.8H157.1z"/>
		<path class="st0" d="M175.6,53.9V43.1h10.8v10.8H175.6z M175.6,66.6V55.8h10.8v10.8H175.6z M175.6,79.3V68.6h10.8v10.8H175.6z
			 M175.6,91.9V81.2h10.8v10.8H175.6z M186.3,104.7l-10.8-10.8h10.8V104.7z M188.2,104.7V93.9H199v10.8H188.2z M200.9,104.7V93.9
			h10.8v10.8H200.9z M213.6,104.7V93.9h10.8v10.8H213.6z"/>
	</g>
	<g>
		<path class="st1" d="M1.6,31.6C0.5,31.6,0,31.1,0,30v-5.1c0-1.1,0.5-1.6,1.6-1.6h11.8c0.7,0,1.1-0.6,1.1-1.3c0-1-0.4-1.4-1.1-1.5
			l-6.6-0.9C2.7,19,0,17.2,0,12.3V7.7C0,2.7,3.4,0,9.1,0h12.3c1.1,0,1.6,0.5,1.6,1.6v5.2c0,1.1-0.5,1.6-1.6,1.6H11.1
			c-0.7,0-1.2,0.5-1.2,1.3s0.4,1.3,1.2,1.4l6.5,0.9c4.1,0.6,6.8,2.4,6.8,7.3v4.6c0,5-3.4,7.7-9.1,7.7H1.6z"/>
		<path class="st1" d="M36.3,31.6c-1.1,0-1.6-0.5-1.6-1.6V8.5h-6.5c-1.1,0-1.6-0.5-1.6-1.6V1.6c0-1.1,0.5-1.6,1.6-1.6h23.2
			c1.1,0,1.6,0.5,1.6,1.6v5.3c0,1.1-0.5,1.6-1.6,1.6H45V30c0,1.1-0.5,1.6-1.6,1.6H36.3z"/>
		<path class="st1" d="M62.9,31.6h-6.4c-1.1,0-1.6-0.5-1.6-1.6V18.4c0-1.8,0.5-3.9,1.7-7l3.8-10c0.4-1,1.1-1.4,2.2-1.4h11.8
			c1.1,0,1.8,0.4,2.2,1.4l3.8,10c1.2,3.1,1.7,5.3,1.7,7V30c0,1.1-0.5,1.6-1.6,1.6H74c-1.2,0-1.7-0.5-1.7-1.6v-6.1h-7.8V30
			C64.5,31.1,64,31.6,62.9,31.6z M64.9,15.9h6.9l-2.1-6.7c-0.2-0.5-0.5-0.7-0.8-0.7h-1.1c-0.4,0-0.6,0.2-0.8,0.7L64.9,15.9z"/>
		<path class="st1" d="M87.9,31.6c-1.1,0-1.6-0.5-1.6-1.6V1.6c0-1.1,0.5-1.6,1.6-1.6h14.6c6.6,0,8.6,3,8.6,7.3v2
			c0,2.5-0.6,4.2-2.5,5c3.2,0.4,5.3,2.7,5.3,6.4V30c0,1.1-0.5,1.6-1.6,1.6h-6.8c-1.1,0-1.6-0.5-1.6-1.6v-6.7c0-1.3-0.4-1.9-1.7-1.9
			h-6.1V30c0,1.1-0.5,1.6-1.6,1.6H87.9z M96.3,13.5h3.3c1.5,0,1.9-0.9,1.9-2.1V10c0-1.2-0.4-2.1-1.9-2.1h-3.3V13.5z"/>
		<path class="st1" d="M125.3,31.6c-1.1,0-1.6-0.5-1.6-1.6V8.5h-6.5c-1.1,0-1.6-0.5-1.6-1.6V1.6c0-1.1,0.5-1.6,1.6-1.6h23.2
			c1.1,0,1.6,0.5,1.6,1.6v5.3c0,1.1-0.5,1.6-1.6,1.6h-6.5V30c0,1.1-0.5,1.6-1.6,1.6H125.3z"/>
		<path class="st1" d="M159.1,32.3c-10.9,0-13.6-3.6-13.6-9V1.6c0-1.1,0.5-1.6,1.6-1.6h6.9c1.1,0,1.6,0.5,1.6,1.6v20
			c0,1.2,0.5,2.1,3.6,2.1c3.1,0,3.6-0.9,3.6-2.1v-20c0-1.1,0.4-1.6,1.6-1.6h6.7c1.1,0,1.6,0.5,1.6,1.6v21.7
			C172.6,28.7,170,32.3,159.1,32.3z"/>
		<path class="st1" d="M178.8,31.6c-1.1,0-1.6-0.5-1.6-1.6V1.6c0-1.1,0.5-1.6,1.6-1.6h13.4c8,0,10.4,3.5,10.4,8.6v5.6
			c0,5.1-2.4,8.6-10.4,8.6h-5V30c0,1.1-0.5,1.6-1.6,1.6H178.8z M187.1,14.8h4c1.7,0,2.1-1,2.1-2.2v-2.3c0-1.1-0.4-2.1-2.1-2.1h-4
			V14.8z"/>
	</g>
</g>
</svg>
