<?xml version="1.0" encoding="utf-8"?>
<!-- Generator: Adobe Illustrator 25.2.0, SVG Export Plug-In . SVG Version: 6.00 Build 0)  -->
<svg version="1.1" id="Layer_1" xmlns="http://www.w3.org/2000/svg" xmlns:xlink="http://www.w3.org/1999/xlink" x="0px" y="0px"
	 width="30px" height="30px" viewBox="0 0 30 30" enable-background="new 0 0 30 30" xml:space="preserve">
<g>
	<path fill="#9A97A0" d="M26.5,5.5c0-0.2-0.1-0.3-0.2-0.5l-0.2-0.4l0.3,0.2C26.7,5,26.8,5.1,27,5.2l-0.1,0.2c0,0-0.1,0-0.1-0.1
		c0,0,0,0.1,0,0.1L26.5,5.5z"/>
	<path fill="#9A97A0" d="M27.2,8.4h-0.2V8.4c0-0.3,0-0.6,0-0.9l0.2,0C27.2,7.7,27.2,8.1,27.2,8.4L27.2,8.4z M26.8,6.9
		c0-0.3-0.1-0.7-0.2-1l0.2-0.1c0.1,0.3,0.1,0.6,0.2,1L26.8,6.9z"/>
	<path fill="#9A97A0" d="M27.1,9.4l-0.2,0c0-0.2,0-0.3,0-0.5l0.1,0c0,0,0,0,0,0l0,0l0.1,0c0,0,0,0,0,0l0.1,0
		C27.1,9.1,27.1,9.3,27.1,9.4z"/>
	<path fill="#9A97A0" d="M26.7,8.5c-0.1-0.3-0.1-0.6-0.2-0.9l0.2-0.1c0.1,0.3,0.2,0.6,0.3,0.9L26.7,8.5z M26.3,7.1
		c-0.1-0.3-0.3-0.6-0.4-0.8l0.2-0.1c0.2,0.3,0.3,0.6,0.4,0.9L26.3,7.1z M25.6,5.9c-0.2-0.3-0.4-0.5-0.6-0.8l0.2-0.2
		c0.2,0.2,0.4,0.5,0.6,0.8L25.6,5.9z M24.8,4.8c-0.2-0.2-0.5-0.5-0.7-0.6l0.2-0.2c0.2,0.2,0.5,0.4,0.7,0.7L24.8,4.8z M23.7,3.8
		c-0.2-0.1-0.3-0.2-0.4-0.3c-0.1-0.1-0.3-0.1-0.4-0.2L23,3.1c0.1,0.1,0.3,0.1,0.4,0.2c0.1,0.1,0.3,0.2,0.4,0.3L23.7,3.8z M22.4,3.2
		C22.1,3.1,21.8,3,21.5,3l0-0.2c0.3,0.1,0.6,0.1,0.9,0.3L22.4,3.2z M21.1,2.9c-0.3,0-0.6-0.1-0.9-0.1l0-0.2c0.3,0,0.7,0,1,0.1
		L21.1,2.9z M18.7,2.9l0-0.2c0.4,0,0.7,0,1,0l0,0.2C19.3,2.8,19,2.8,18.7,2.9z"/>
	<path fill="#9A97A0" d="M17.8,3.3c-0.1-0.2-0.1-0.4-0.2-0.4l-0.1-0.2l0.7-0.1l0,0.2l-0.3,0C17.9,3,18,3.1,18,3.2L17.8,3.3z"/>
	<path fill="#9A97A0" d="M18,4.5l-0.2-0.3c-0.1-0.1-0.2-0.3-0.3-0.4l0.2-0.2c0,0,0.1,0.1,0.1,0.1c0,0,0-0.1,0-0.1l0.2,0
		c0,0.2,0,0.4,0,0.5L18,4.5z"/>
	<path fill="#9A97A0" d="M14.1,3.7L14,3.5c0.3-0.1,0.5-0.2,0.8-0.3l0.1,0.2C14.6,3.5,14.3,3.6,14.1,3.7z M17.3,3.5
		c-0.2-0.2-0.5-0.3-0.7-0.3l0.1-0.2c0.3,0.1,0.6,0.2,0.8,0.4L17.3,3.5z M15.3,3.3l-0.1-0.2C15.5,3,15.7,3,16,2.9c0,0,0.1,0,0.1,0
		l0,0.2c0,0-0.1,0-0.1,0C15.8,3.2,15.5,3.3,15.3,3.3z"/>
	<path fill="#9A97A0" d="M13.2,4.1L13.2,4.1C13,4,12.8,3.9,12.7,3.8l0.1-0.2c0.1,0.1,0.3,0.1,0.4,0.2c0.1-0.1,0.3-0.1,0.4-0.2
		l0.1,0.2C13.5,3.9,13.4,4,13.2,4.1L13.2,4.1z"/>
	<path fill="#9A97A0" d="M10.7,4c0,0,0-0.1,0-0.1c0-0.1-0.1-0.4-0.1-0.7l0.2,0c0,0.3,0.1,0.6,0.1,0.7c0,0,0,0.1,0,0.1L10.7,4z
		 M12.3,3.7L12.3,3.7c-0.3-0.1-0.6-0.3-0.8-0.4l0.1-0.2c0.2,0.1,0.4,0.2,0.7,0.4l0,0L12.3,3.7z M11.2,2.9c-0.2-0.3-0.3-0.3-0.3-0.3
		c0,0,0,0,0,0.1l-0.2,0c0-0.3,0.2-0.3,0.3-0.3c0,0,0,0,0,0c0.1,0,0.3,0.1,0.5,0.4L11.2,2.9z"/>
	<path fill="#9A97A0" d="M11.4,5.1l-0.7-0.3l0.1-0.2l0.2,0.1c0-0.1-0.1-0.1-0.1-0.2l0.2-0.1c0,0.1,0.1,0.3,0.2,0.5L11.4,5.1z"/>
	<path fill="#9A97A0" d="M10.2,4.7C9.8,4.5,9.5,4.4,9.3,4.3l0.1-0.2c0.2,0.1,0.5,0.2,0.9,0.4L10.2,4.7z M8.9,4.1
		C8.6,3.9,8.3,3.8,8.2,3.8c0,0,0,0,0,0L8,3.6c0,0,0.1,0,0.2,0c0.3,0,0.6,0.2,0.8,0.4L8.9,4.1z"/>
	<path fill="#9A97A0" d="M8.7,4.9L7.8,4.4L8,4.2l0,0c0,0,0,0,0,0l0.2-0.1c0,0.1,0.1,0.2,0.1,0.3L8.7,4.9z"/>
	<path fill="#9A97A0" d="M7.1,6.9C6.8,6.7,6.6,6.5,6.3,6.3l0.2-0.2C6.7,6.3,7,6.5,7.2,6.7L7.1,6.9z M6,6C5.7,5.8,5.5,5.6,5.2,5.4
		l0.2-0.2c0.2,0.2,0.5,0.4,0.7,0.6L6,6z M4.9,5.1C4.6,4.9,4.4,4.7,4.1,4.5l0.2-0.2C4.5,4.5,4.8,4.7,5,4.9L4.9,5.1z M7.4,4.1
		C7.2,4,6.9,3.8,6.6,3.6l0.1-0.2C7,3.6,7.3,3.8,7.6,3.9L7.4,4.1z M3.8,4.1C3.5,3.9,3.3,3.7,3,3.5l0.2-0.2C3.4,3.5,3.7,3.7,3.9,4
		L3.8,4.1z M6.2,3.4C6,3.2,5.7,3,5.4,2.9l0.1-0.2C5.8,2.8,6.1,3,6.4,3.2L6.2,3.4z M2.7,3.2C2.4,3,2.2,2.8,2,2.5l0.2-0.2
		C2.4,2.6,2.6,2.8,2.9,3L2.7,3.2z M5,2.6C4.7,2.5,4.5,2.3,4.2,2.1l0.1-0.2c0.3,0.2,0.5,0.3,0.8,0.5L5,2.6z M1.6,2.2
		C1.4,2,1.2,1.8,0.9,1.5l0.2-0.2C1.3,1.6,1.6,1.8,1.8,2L1.6,2.2z M3.8,1.9C3.5,1.7,3.2,1.6,2.9,1.4l0.1-0.2c0.3,0.1,0.5,0.3,0.8,0.5
		L3.8,1.9z M2.5,1.2C2.2,1,1.9,0.9,1.7,0.8l0.1-0.2C2.1,0.7,2.3,0.8,2.6,1L2.5,1.2z M0.6,1.2C0.3,0.8,0.1,0.6,0,0.4l0.2-0.1
		c0,0.1,0.2,0.3,0.5,0.7L0.6,1.2z M1.3,0.6C0.9,0.4,0.6,0.3,0.4,0.2l0-0.2c0.2,0,0.5,0.1,0.9,0.3L1.3,0.6z"/>
	<path fill="#9A97A0" d="M7.5,7.8L7.4,7.5c0.1,0,0.2-0.1,0.3-0.1L7.4,7.2L7.6,7l0.5,0.4L8,7.5C7.8,7.6,7.6,7.7,7.5,7.8z"/>
	<path fill="#9A97A0" d="M6.4,8.1l0-0.2c0.2,0,0.4-0.1,0.7-0.1l0.1,0.2C6.9,8,6.6,8,6.4,8.1z"/>
	<path fill="#9A97A0" d="M5.7,8.3C5.6,8.2,5.5,8,5.4,7.9L5.3,7.6l0.3,0.1c0.2,0,0.3,0.1,0.5,0.1L6,8C5.9,8,5.9,8,5.8,8
		c0,0.1,0.1,0.1,0.1,0.2L5.7,8.3z"/>
	<path fill="#9A97A0" d="M7.7,9.5c-0.3,0-0.5-0.1-0.8-0.2L7,9.1c0.2,0.1,0.5,0.1,0.7,0.2L7.7,9.5z M6.5,9.2C6.3,9.1,6.1,8.9,5.9,8.7
		l0.2-0.2C6.3,8.7,6.5,8.9,6.7,9L6.5,9.2z"/>
	<path fill="#9A97A0" d="M8.5,9.8L8.3,9.7c0-0.1,0.1-0.1,0.1-0.2c-0.1,0-0.1,0-0.2,0l0-0.2c0.3,0,0.4-0.1,0.4-0.1l0,0.1l0.1,0.1
		C8.6,9.5,8.5,9.7,8.5,9.8z"/>
	<path fill="#9A97A0" d="M8.6,25.9c-0.3,0-0.5,0-0.8-0.1l0.1-0.2c0.2,0.1,0.5,0.1,0.7,0.1c0.1,0,0.1,0,0.2,0l0,0.2
		C8.8,25.9,8.7,25.9,8.6,25.9z M9.4,25.9l-0.1-0.2c0.3-0.1,0.6-0.2,0.9-0.3l0.1,0.2C10,25.7,9.7,25.8,9.4,25.9z M7.4,25.7
		c-0.3-0.1-0.6-0.3-0.9-0.5l0.1-0.2c0.3,0.2,0.5,0.3,0.8,0.4L7.4,25.7z M10.7,25.2L10.6,25c0.2-0.1,0.3-0.3,0.5-0.4
		c0.1-0.1,0.1-0.2,0.2-0.2l0.2,0.2c-0.1,0.1-0.1,0.2-0.2,0.2C11.1,25,10.9,25.1,10.7,25.2z M6.1,25c-0.3-0.2-0.5-0.5-0.7-0.7
		l0.2-0.1c0.2,0.3,0.4,0.5,0.6,0.7L6.1,25z M11.7,24.1L11.5,24c0.1-0.2,0.2-0.3,0.2-0.5c0.1-0.1,0.1-0.3,0.2-0.4l0.2,0.1
		c-0.1,0.1-0.1,0.3-0.2,0.4C11.9,23.8,11.8,24,11.7,24.1z M5.2,23.8c-0.2-0.3-0.3-0.6-0.3-0.9l0.2,0c0.1,0.3,0.2,0.6,0.3,0.9
		L5.2,23.8z M12.4,22.8l-0.2-0.1c0.2-0.3,0.4-0.5,0.6-0.8l0.2,0.2C12.7,22.4,12.5,22.6,12.4,22.8z M4.8,22.3L4.8,22.3
		c0-0.4,0-0.7,0.1-1l0.2,0.1C5,21.7,5,22,5,22.3l0,0.1L4.8,22.3z M13.3,21.8l-0.2-0.2c0.2-0.1,0.3-0.3,0.5-0.5l0.1,0
		c0.1,0,0.2,0,0.3-0.1l0.1,0.2c-0.1,0-0.2,0-0.2,0.1C13.6,21.5,13.5,21.6,13.3,21.8z M14.5,21.2l-0.1-0.2c0.3-0.1,0.6-0.2,0.9-0.3
		l0.1,0.2C15.2,20.9,14.9,21.1,14.5,21.2z M5.2,21L5,20.9c0.1-0.3,0.2-0.6,0.4-0.9l0.2,0.1C5.4,20.4,5.3,20.7,5.2,21z M15.9,20.6
		l-0.1-0.2c0.3-0.2,0.5-0.4,0.7-0.6l0.2,0.2C16.5,20.2,16.2,20.4,15.9,20.6z M5.8,19.6l-0.2-0.1L6,18.6l0.2,0.1L5.8,19.6z M17,19.6
		l-0.2-0.1c0.2-0.3,0.3-0.5,0.4-0.8l0.2,0.1C17.3,19,17.2,19.3,17,19.6z M6.4,18.3l-0.2-0.1L6.3,18c0.1-0.2,0.2-0.4,0.2-0.7l0.2,0.1
		c-0.1,0.2-0.2,0.5-0.3,0.7L6.4,18.3z M6.9,16.9l-0.2-0.1c0.1-0.3,0.1-0.6,0.2-0.9l0.2,0C7,16.3,7,16.6,6.9,16.9z M7.2,15.5l-0.2,0
		c0-0.3,0.1-0.6,0.1-0.9l0-0.1l0.2,0l0,0.1C7.3,14.9,7.2,15.2,7.2,15.5z M7.4,14l-0.2,0c0-0.3,0.1-0.6,0.1-1l0.2,0
		C7.5,13.4,7.4,13.7,7.4,14z M7.6,12.6l-0.2,0c0.1-0.3,0.1-0.7,0.2-1l0.2,0.1C7.8,11.9,7.7,12.2,7.6,12.6z M8,11.2l-0.2-0.1
		c0.1-0.3,0.2-0.6,0.3-0.9l0.2,0.1C8.2,10.6,8.1,10.9,8,11.2z"/>
	<path fill="#9A97A0" d="M17.5,18.1l-0.2,0c0-0.2,0-0.3,0-0.5v-0.1l0.1,0c0.1,0,0.3-0.1,0.5,0.4L17.6,18c0-0.1-0.1-0.1-0.1-0.2
		C17.5,17.9,17.5,18,17.5,18.1z"/>
	<path fill="#9A97A0" d="M19,28.9l-0.2,0c0-0.3,0-0.6,0-0.9l0.2,0C19,28.3,19,28.6,19,28.9z M19,27.5l-0.2,0c0-0.2,0-0.4,0-0.7
		l0-0.3l0.2,0l0,0.3C19.1,27.1,19.1,27.3,19,27.5z M19.1,26.1l-0.2,0c0-0.3,0-0.6,0-0.9l0.2,0C19.2,25.5,19.1,25.8,19.1,26.1z
		 M19.2,24.7l-0.2,0l0-0.2c0-0.3,0-0.5,0-0.8l0.2,0c0,0.3,0,0.5,0,0.8L19.2,24.7z M18.9,23.3c0-0.3-0.1-0.5-0.1-0.7l0-0.2l0.2,0
		l0,0.2c0,0.2,0.1,0.5,0.1,0.8L18.9,23.3z M18.7,22c-0.1-0.3-0.1-0.6-0.2-0.9l0.2,0c0.1,0.3,0.1,0.6,0.2,0.9L18.7,22z M18.4,20.6
		c-0.1-0.3-0.1-0.6-0.2-0.9l0.2-0.1c0.1,0.3,0.1,0.6,0.2,0.9L18.4,20.6z M18.1,19.2c-0.1-0.3-0.2-0.6-0.3-0.9l0.2-0.1
		c0.1,0.2,0.2,0.5,0.3,0.9L18.1,19.2z"/>
	<path fill="#9A97A0" d="M19.4,30h-0.6l0-0.1c0-0.2,0-0.3,0-0.5l0.2,0c0,0.1,0,0.2,0,0.4h0.4V30z"/>
	<path fill="#9A97A0" d="M28.9,30h-1.1v-0.2h1.1V30z M27.3,30h-1.1v-0.2h1.1V30z M25.7,30h-1.1v-0.2h1.1V30z M24.1,30h-1.1v-0.2h1.1
		V30z M22.5,30h-1.1v-0.2h1.1V30z M21,30h-1.1v-0.2H21V30z"/>
	<polygon fill="#9A97A0" points="30,30 29.4,30 29.4,29.8 29.8,29.8 29.8,29.4 30,29.4 	"/>
	<path fill="#9A97A0" d="M30,28.9h-0.2v-1H30V28.9z M30,27.4h-0.2v-1H30V27.4z M30,26h-0.2v-1H30V26z M30,24.5h-0.2v-1H30V24.5z
		 M30,23.1h-0.2v-1H30V23.1z M30,21.6h-0.2v-1H30V21.6z M30,20.2h-0.2v-1H30V20.2z M30,18.7h-0.2v-1H30V18.7z M30,17.3h-0.2v-1H30
		V17.3z M30,15.8h-0.2v-1H30V15.8z M30,14.4h-0.2v-1H30V14.4z M30,12.9h-0.2v-1H30V12.9z M30,11.5h-0.2v-1H30V11.5z M30,10h-0.2V9.1
		h0.1L30,9l0,0l0,0.1V10z M29.5,8.7c-0.1-0.1-0.1-0.2-0.2-0.3C29.2,8.2,29.1,8,29,7.9l0.2-0.1c0.1,0.2,0.2,0.4,0.3,0.5
		c0.1,0.1,0.1,0.2,0.2,0.3L29.5,8.7z M28.8,7.5c-0.2-0.3-0.4-0.5-0.6-0.8l0.2-0.2C28.6,6.8,28.8,7,29,7.3L28.8,7.5z M27.9,6.3
		c-0.2-0.2-0.5-0.4-0.7-0.6l0.2-0.2c0.3,0.2,0.5,0.4,0.7,0.7L27.9,6.3z"/>
</g>
</svg>
