<?xml version="1.0" encoding="utf-8"?>
<!-- Generator: Adobe Illustrator 25.2.0, SVG Export Plug-In . SVG Version: 6.00 Build 0)  -->
<svg version="1.1" id="Layer_1" xmlns="http://www.w3.org/2000/svg" xmlns:xlink="http://www.w3.org/1999/xlink" x="0px" y="0px"
	 width="300px" height="300px" viewBox="0 0 300 300" enable-background="new 0 0 300 300" xml:space="preserve">
<circle fill="#B5A9AF" cx="150" cy="150" r="150"/>
<path fill="#6F482E" d="M149.8,186.1h0.2c0.9,0,1.7,0,2.6-0.1c7-0.5,14-3.2,20.5-5.8c2.7-1.3,5-2.7,6.6-3.9l0,0
	c-1.3-1.3-2.3-4.3-3.1-7.7c-6.7,2.3-15.4,3.7-26.5,3.7s-19.7-1.3-26.5-3.6c-0.6,2.6-1.3,4.9-2.2,6.4l0,0
	C129.9,180.8,139.1,186.1,149.8,186.1z"/>
<path fill="#FFFFFF" d="M189.5,181.7c0-0.1,0.1-0.2,0.1-0.2v-0.1l0,0l0,0c-2-0.8-4.2-1.9-6.2-3c-5.9,4.7-17.9,12.3-33.4,12.2
	c-16.9-0.2-26.7-8.9-31.7-13.5c-2.5,1.6-5.6,3.6-7.9,4.5c0,0,0,0.1,0.1,0.1l0,0c0,0.1,0.1,0.2,0.1,0.3s0.1,0.2,0.1,0.3
	s0.1,0.2,0.1,0.4v0.1c0.1,0.2,0.1,0.3,0.2,0.5c0,0,0,0,0,0.1c4,10.7,24.6,67,34.2,116.7c1.6,0,3.1,0.1,4.7,0.1c1.6,0,3.1,0,4.7-0.1
	C164.9,247.3,187.4,187.3,189.5,181.7C189.5,181.8,189.5,181.8,189.5,181.7z"/>
<path fill="#859AA7" d="M154.7,299.9L154.7,299.9c10.2-52.6,32.7-112.6,34.7-118.1C187.4,187.3,164.9,247.3,154.7,299.9z"/>
<path fill="#859AA7" d="M189.6,181.5c0,0.1,0,0.1-0.1,0.2C189.5,181.7,189.5,181.6,189.6,181.5z"/>
<path fill="#859AA7" d="M189.6,181.4L189.6,181.4L189.6,181.4L189.6,181.4z"/>
<path fill="#859AA7" d="M110.4,181.4L110.4,181.4L110.4,181.4z"/>
<path fill="#859AA7" d="M110.5,181.7c0,0.1,0.1,0.2,0.1,0.3C110.5,181.8,110.5,181.7,110.5,181.7z"/>
<path fill="#859AA7" d="M110.7,182.2c0,0.1,0.1,0.2,0.1,0.4C110.8,182.4,110.7,182.3,110.7,182.2z"/>
<path fill="#859AA7" d="M145.3,299.9L145.3,299.9c-9.6-49.7-30.2-106-34.2-116.7C115.1,194,135.7,250.3,145.3,299.9z"/>
<path fill="#859AA7" d="M110.9,182.7c0.1,0.2,0.1,0.3,0.2,0.5C111,183,110.9,182.8,110.9,182.7z"/>
<path fill="#D5DBDE" d="M183.4,178.4c-1.4-0.8-2.7-1.5-3.6-2.1l0,0c-1.6,1.2-3.9,2.6-6.6,3.9c-6.5,2.6-13.5,5.2-20.5,5.8
	c-0.9,0.1-1.8,0.1-2.6,0.1h-0.2c-10.7,0-19.9-5.3-28.3-11l0,0c-0.8,0.5-1.9,1.2-3.1,2c5,4.6,14.8,13.4,31.7,13.5
	C165.4,190.7,177.4,183.1,183.4,178.4z"/>
<path fill="#6F482E" d="M196.6,121.4c4.1-1.9,6.5-7.2,6.9-12.5c0.5-5.5-1.3-11.6-7.7-13.7l-1.4,15.1
	C195,113.6,195.9,117.3,196.6,121.4z"/>
<path fill="#6F482E" d="M104.4,95.1c-6.4,2.1-8.2,8.2-7.7,13.7c0.4,5.4,2.9,10.7,6.9,12.5c0.8-4.2,1.6-8,2.2-11.4L104.4,95.1z"/>
<polygon fill="#905E39" points="159.9,54.3 112.2,60.3 106.7,66.3 109.1,136.9 142.7,152.4 183.4,139.8 192.8,115.8 193.7,67.8 "/>
<path fill="#38302C" d="M189.3,51.6c-1.8-0.2-3.6,0-5.2,0.5c0,0,0,0,0,0c-1.8-4.3-6-7.2-10.9-7.2c-1.2,0-2.3,0.2-3.3,0.5
	c-2-3.6-5.9-6-10.3-6c-3,0-5.8,1.1-7.9,3c0,0,0.1-0.1,0.1-0.1c-2.1-1.7-4.8-2.7-7.8-2.6c-3.7,0.1-6.9,2.1-9,4.8
	c-2-1.4-4.5-2.2-7.1-2.1c-5.7,0.2-10.3,4.4-11.2,9.8c-0.7-0.2-1.5-0.4-2.3-0.5c-6.5-0.8-12.3,3.8-13.1,10.3c-0.2,1.7,0,3.4,0.4,4.9
	l0.1,0.1l2.6,28.1l1.4,14.6c0,0.1,0,0.3-0.1,0.4c-0.6,3.3-1.4,7.2-2.2,11.4c-3.1,17-4.7,38.7,20,47.2c6.7,2.3,15.4,3.6,26.5,3.6h0.2
	c11.1,0,19.8-1.3,26.5-3.7c24.7-8.5,23.1-30.2,19.9-47.2c-0.7-4-1.6-7.8-2.1-11.1l1.4-15l2.5-26.4l0-0.3c0.6-1.2,1-2.5,1.2-3.9
	C200.4,58.2,195.8,52.4,189.3,51.6z M189.9,75v20.4h-11.6c-6.4-1.6-18.3-0.8-23.1,2.7c-1.3,0.9-1.9,1.9-2.2,2.9h-5.5
	c-0.3-0.9-0.9-1.9-2.2-2.9c-4.8-3.5-16.6-4.3-23.1-2.7h-11.6v4.2h5.6c-3,4.8-0.9,11.8,0.1,14.8c0.6,2.1,2.3,3.8,4.9,4.9
	c2.4,1.1,5.6,1.7,8.7,1.7c2.7,0,5.3-0.4,7.3-1.3c5.9-2.6,9.4-11.8,10.3-16.3h5.4c0.9,4.5,4.4,13.7,10.3,16.3c2,0.9,4.6,1.3,7.3,1.3
	c3.1,0,6.3-0.6,8.7-1.7c2.5-1.2,4.2-2.9,4.9-4.9c0.9-3,3.1-10,0.2-14.8h5.6v0.1v13.9c-4.3,10.2-5.5,21-11.1,21.3
	c-5.5,0.3-9.7-5.2-15.9-6.6c-2.3-0.5-8.7,0-12.7,0h-0.1c-4,0-10.4-0.6-12.7,0c-6.3,1.4-10.4,6.8-15.9,6.6c-5.6-0.3-6.8-10.9-11-20.9
	l0-0.2v-5v-9.2v-4.2V74.9c0.4,0.1,0.7,0.2,1.1,0.2c6.3,0.8,12-3.6,13-9.7l0,0c0,0,0.1,0,0.1,0c1.3,0.4,2.7,0.6,4.1,0.6
	c3.7-0.1,6.9-2,9-4.7c0,0,0,0,0-0.1c2,1.4,4.5,2.2,7.1,2.1c2.9-0.1,5.5-1.2,7.4-3c2,1.6,4.6,2.6,7.3,2.6c1.2,0,2.3-0.2,3.3-0.5
	c2,3.6,5.9,6,10.3,6c1.3,0,2.6-0.2,3.8-0.6c1.6,3.8,5.1,6.7,9.5,7.2C187.7,75.1,188.8,75.1,189.9,75L189.9,75z M181.6,113.7
	c-0.5,1.7-2.2,2.8-3.5,3.4c-4.3,2-10.7,1.8-14,0.3c-5.1-2.3-8.3-11.2-8.9-14.9c-0.1-0.5-0.1-1.3,1.3-2.4c4.7-3.4,18.7-3.9,23.1-1.6
	C183.6,100.6,184.2,105.3,181.6,113.7z M145,102.6c-0.7,3.7-3.8,12.6-8.9,14.9c-3.2,1.4-9.6,1.6-14-0.3c-1.3-0.6-3-1.7-3.5-3.4
	c-2.6-8.5-1.9-13.1,2-15.3c1.8-0.9,5.2-1.4,8.9-1.4c5.4,0,11.5,1,14.2,3C145.1,101.1,145.1,102,145,102.6z"/>
<g>
	<path fill="#3F4E6B" d="M262.1,249.6c-2.4-23.2-4.6-41.2-6.3-45.3c-4.3-9.8-46-18.9-60.9-21.9c-0.3-0.1-0.5-0.1-0.8-0.2l-0.1,0.1
		c-2.8-0.6-4.5-0.9-4.5-0.9v0.1c0,0.1,0,0.1-0.1,0.2v0.1c-2.1,5.5-24.5,65.5-34.7,118.1c3.3-0.1,6.7-0.3,9.9-0.6l1.3-0.2l0,0
		C204,295.1,238,276.8,262.1,249.6z"/>
	<path fill="#3F4E6B" d="M111,183.2c-0.1-0.2-0.1-0.3-0.2-0.5v-0.1c-0.1-0.1-0.1-0.3-0.1-0.4c0-0.1-0.1-0.2-0.1-0.3
		c0-0.1-0.1-0.2-0.1-0.3c0-0.1,0-0.1-0.1-0.1v-0.1c0,0-1.7,0.3-4.5,0.9l0,0c-0.2,0-0.4,0.1-0.7,0.2c-14.9,3-56.7,12.1-60.8,22
		c-1.7,4.1-4,22.2-6.3,45.3c24.5,27.5,58.9,45.9,97.7,49.6c0,0,0-0.1,0-0.1c3.1,0.3,6.3,0.5,9.5,0.6
		C135.7,250.3,115.1,194,111,183.2z"/>
</g>
</svg>
