<?xml version="1.0" encoding="utf-8"?>
<!-- Generator: Adobe Illustrator 25.2.0, SVG Export Plug-In . SVG Version: 6.00 Build 0)  -->
<svg version="1.1" id="Layer_1" xmlns="http://www.w3.org/2000/svg" xmlns:xlink="http://www.w3.org/1999/xlink" x="0px" y="0px"
	 width="300px" height="300px" viewBox="0 0 300 300" enable-background="new 0 0 300 300" xml:space="preserve">
<circle fill="#B5A9AF" cx="150" cy="150" r="150"/>
<path fill="#FFC799" d="M196,87.5c-0.6,3.7-1.5,7-2.5,9.8c-1.2,3.8-2.5,6.7-3.4,8.4l0.4-24.4h-83.4l0.9,24.9
	c-0.8-1.6-2.2-4.7-3.6-8.9c-0.9-2.8-1.8-6.2-2.5-9.9c-4,2.7-5.1,7.6-4.8,12c0.5,5.8,3.4,11.6,8.2,12.6l0.4,7
	c0,16.2,7.8,28.3,20.4,34.6c-0.1,2.7-0.3,5.5-0.7,8.2c6.6,3.6,14.6,5.5,23.5,5.5c9.1,0,17.3-2,23.9-5.7c-0.4-2.3-0.7-5-1-8
	c12.5-6.3,20.2-18.4,20.2-34.5l0.4-7c4.8-1.1,7.7-6.8,8.2-12.6C201.1,95,200,90.1,196,87.5z"/>
<g>
	<path fill="#FFDBBA" d="M172.9,161.6c-6.7,3.7-14.8,5.7-23.9,5.7c-8.9,0-16.9-1.9-23.5-5.5c-0.8,5.8-2.2,11.3-5,15.5
		c0.2,0.1,0.4,0.1,0.5,0.2c8.6,3.2,18.3,4.9,28.2,4.9c10,0.1,19.7-1.7,28.3-4.9c0.2-0.1,0.3-0.1,0.5-0.2
		C177.9,177.2,175,174.4,172.9,161.6z"/>
	<path fill="#FFDBBA" d="M190,67.3l-23.4-26.4l-43.8,3.7l-16.6,27.5l2.6,32l1,17.3c0,13.8,6.3,24.1,16.6,29.9
		c6.2,3.5,14,5.4,22.7,5.4h0c8.7,0,16.5-1.9,22.7-5.4c10.3-5.8,16.5-16.1,16.5-29.9l0.9-17.2c0-0.4,0-0.8-0.1-1.3l0.1,0L190,67.3z"
		/>
</g>
<path fill="#C09464" d="M108.7,107.4c0,0,0-1.2,0.1-3.3c0.3-6,1.6-19.6,6.3-34.2c6.3-19.6,61.5-19.6,67.8,0
	c4.7,14.7,6,28.4,6.3,34.4c0.1,2,0.1,3.1,0.1,3.1s2.2-3.9,4.2-10.1c0.9-2.8,1.8-6.2,2.5-9.8c3.1-17.4,0.5-42.6-31.1-60.5l-3.3,6.6
	c0,0-2.8-3.1-12.6-12.7c-9.7,9.5-12.6,12.7-12.6,12.7l-3.3-6.6C101.5,44.8,98.9,70.1,102,87.5c0.6,3.7,1.5,7,2.5,9.9
	C106.5,103.6,108.7,107.4,108.7,107.4z"/>
<path fill="#FFBB4B" d="M207,187.7c-8.1-1.8-21.9-5.8-28.8-10.3c-0.2,0.1-0.3,0.1-0.5,0.2c-8.7,3.2-18.3,5-28.3,4.9
	c-10,0.1-19.6-1.6-28.2-4.9c-0.2-0.1-0.4-0.1-0.6-0.2c-7,4.5-20.7,8.6-28.8,10.3c-31.1,6.8-43.4,32-49.2,66.9
	c27.3,28,65.3,45.4,107.5,45.4c41.6,0,79.2-16.9,106.4-44.2C250.7,220.2,238.5,194.6,207,187.7z"/>
</svg>
