<?xml version="1.0" encoding="utf-8"?>
<!-- Generator: Adobe Illustrator 25.2.0, SVG Export Plug-In . SVG Version: 6.00 Build 0)  -->
<svg version="1.1" id="Layer_1" xmlns="http://www.w3.org/2000/svg" xmlns:xlink="http://www.w3.org/1999/xlink" x="0px" y="0px"
	 viewBox="0 0 30 30" enable-background="new 0 0 30 30" xml:space="preserve">
<g>
	<path fill="#4D4D4D" d="M15,3c6.62,0,12,5.38,12,12s-5.38,12-12,12S3,21.62,3,15S8.38,3,15,3 M15,0C6.72,0,0,6.72,0,15
		s6.72,15,15,15s15-6.72,15-15S23.28,0,15,0L15,0z"/>
</g>
<g>
	<path fill="#4D4D4D" d="M11.25,12.5c2.08-0.31,3.9-0.64,5.48-0.98l0.14,0.1c-0.05,1.17-0.08,2.41-0.08,3.73v4.78
		c0,1.01,0.01,1.71,0.03,2.1c0.02,0.23,0.12,0.37,0.32,0.43l1.58,0.44l0.04,0.61c-1.25-0.03-2.49-0.04-3.73-0.04
		c-1.26,0-2.5,0.01-3.73,0.04l-0.06-0.61l1.61-0.44c0.19-0.05,0.3-0.18,0.32-0.38c0.02-0.33,0.03-0.88,0.03-1.66v-4.08
		c0-1.11-0.02-2.13-0.05-3.05l-1.81-0.47L11.25,12.5z M16.83,7.33c0,0.58-0.19,1.06-0.56,1.42s-0.87,0.55-1.48,0.55
		c-0.56,0-1.02-0.17-1.38-0.51c-0.36-0.34-0.54-0.79-0.54-1.34c0-0.6,0.19-1.07,0.57-1.42s0.87-0.52,1.48-0.52
		c0.56,0,1.01,0.16,1.37,0.48C16.65,6.29,16.83,6.74,16.83,7.33z"/>
</g>
</svg>
