<?xml version="1.0" encoding="utf-8"?>
<!-- Generator: Adobe Illustrator 25.2.0, SVG Export Plug-In . SVG Version: 6.00 Build 0)  -->
<svg version="1.1" id="Layer_1" xmlns="http://www.w3.org/2000/svg" xmlns:xlink="http://www.w3.org/1999/xlink" x="0px" y="0px"
	 viewBox="0 0 30 30" style="enable-background:new 0 0 30 30;" xml:space="preserve">
<style type="text/css">
	.st0{fill:#4D4D4D;}
</style>
<g>
	<path class="st0" d="M13.97,5v8.93c-0.56,0.23-0.95,0.76-0.95,1.38c0,0.83,0.69,1.5,1.55,1.5c0.53,0,0.99-0.26,1.27-0.65h6.04v-1.7
		h-6.04c-0.18-0.26-0.45-0.45-0.76-0.56V5H13.97z"/>
	<path class="st0" d="M29.97,15c0-8.27-6.71-15-14.97-15C11.16,0,7.66,1.46,5,3.85l1.72,1.92c2.19-1.98,5.1-3.18,8.27-3.18
		c6.83,0,12.38,5.57,12.38,12.41c0,4.57-2.48,8.57-6.16,10.72l-0.89-1.67l-2.92,4.48L23.51,30l-1.07-2
		C26.94,25.41,29.97,20.55,29.97,15z"/>
	<path class="st0" d="M6.02,26.99c1.09,0.82,2.3,1.5,3.59,2l0.97-2.4c-1.1-0.42-2.13-1-3.05-1.7L6.02,26.99z"/>
	<path class="st0" d="M2.62,15c0-0.14,0-0.29,0.01-0.43l-2.58-0.1C0.04,14.65,0.03,14.82,0.03,15c0,1.41,0.2,2.78,0.56,4.08
		l2.37-1.14C2.74,17,2.62,16.01,2.62,15z"/>
	<path class="st0" d="M1.36,21.16c0.58,1.28,1.33,2.46,2.22,3.51l1.94-1.7c-0.83-0.99-1.51-2.11-2-3.32L1.36,21.16z"/>
	<path class="st0" d="M4.89,7.83L2.79,6.34c-1.14,1.61-1.97,3.44-2.4,5.43l2.5,0.67C3.23,10.76,3.93,9.19,4.89,7.83z"/>
	<path class="st0" d="M15,27.41c-0.73,0-1.44-0.06-2.13-0.18l-0.48,2.54C13.24,29.92,14.11,30,15,30c0.44,0,0.88-0.02,1.31-0.06
		L15.5,27.4C15.33,27.41,15.17,27.41,15,27.41z"/>
</g>
</svg>
