<?xml version="1.0" encoding="utf-8"?>
<!-- Generator: Adobe Illustrator 25.2.0, SVG Export Plug-In . SVG Version: 6.00 Build 0)  -->
<svg version="1.1" id="Layer_1" xmlns="http://www.w3.org/2000/svg" xmlns:xlink="http://www.w3.org/1999/xlink" x="0px" y="0px"
	 width="30px" height="30px" viewBox="0 0 30 30" enable-background="new 0 0 30 30" xml:space="preserve">
<g>
	<path fill="#4D4D4D" d="M-22.86-34.57c6.62,0,12,5.38,12,12s-5.38,12-12,12s-12-5.38-12-12S-29.48-34.57-22.86-34.57 M-22.86-37.57
		c-8.28,0-15,6.72-15,15s6.72,15,15,15s15-6.72,15-15S-14.58-37.57-22.86-37.57L-22.86-37.57z"/>
</g>
<path fill="#4D4D4D" d="M11.91,21.36l-3.27-3.27c-0.19-0.19-0.51-0.19-0.71,0l-4.39,4.39l-3.19-3.19C0.16,19.09,0,19.16,0,19.43
	V29.5C0,29.78,0.22,30,0.5,30h10.07c0.28,0,0.34-0.16,0.15-0.35l-3.19-3.19l4.39-4.39C12.11,21.87,12.11,21.55,11.91,21.36z"/>
<path fill="#4D4D4D" d="M21.36,18.09l-3.27,3.27c-0.19,0.19-0.19,0.51,0,0.71l4.39,4.39l-3.19,3.19c-0.2,0.19-0.13,0.35,0.14,0.35
	H29.5c0.28,0,0.5-0.22,0.5-0.5V19.43c0-0.28-0.16-0.34-0.35-0.15l-3.19,3.19l-4.39-4.39C21.87,17.89,21.55,17.89,21.36,18.09z"/>
<path fill="#4D4D4D" d="M18.09,8.65l3.27,3.27c0.19,0.19,0.51,0.19,0.71,0l4.39-4.39l3.19,3.19c0.19,0.2,0.35,0.13,0.35-0.14V0.5
	C30,0.22,29.78,0,29.5,0L19.43,0c-0.28,0-0.34,0.16-0.15,0.35l3.19,3.19l-4.39,4.39C17.89,8.14,17.89,8.46,18.09,8.65z"/>
<path fill="#4D4D4D" d="M8.64,11.91l3.27-3.27c0.19-0.19,0.19-0.51,0-0.71L7.52,3.54l3.19-3.19C10.91,0.16,10.84,0,10.57,0L0.5,0
	C0.22,0,0,0.22,0,0.5l0,10.07c0,0.28,0.16,0.34,0.35,0.15l3.19-3.19l4.39,4.39C8.13,12.11,8.45,12.11,8.64,11.91z"/>
</svg>
