<?xml version="1.0" encoding="utf-8"?>
<!-- Generator: Adobe Illustrator 25.2.0, SVG Export Plug-In . SVG Version: 6.00 Build 0)  -->
<svg version="1.1" id="Layer_1" xmlns="http://www.w3.org/2000/svg" xmlns:xlink="http://www.w3.org/1999/xlink" x="0px" y="0px"
	 width="30px" height="30px" viewBox="0 0 30 30" enable-background="new 0 0 30 30" xml:space="preserve">
<path fill="#4D4D4D" d="M0.15,26.58l3.27,3.27c0.19,0.19,0.51,0.19,0.71,0l3.28-3.28l3.19,3.19c0.19,0.19,0.35,0.13,0.35-0.15V19.55
	c0-0.28-0.22-0.5-0.5-0.5H0.38c-0.28,0-0.34,0.16-0.15,0.35l3.19,3.19l-3.28,3.28C-0.05,26.07-0.05,26.39,0.15,26.58z"/>
<path fill="#4D4D4D" d="M3.42,0.15L0.15,3.42c-0.19,0.19-0.19,0.51,0,0.71L3.42,7.4l-3.19,3.19c-0.19,0.19-0.13,0.35,0.15,0.35
	h10.07c0.28,0,0.5-0.22,0.5-0.5V0.38c0-0.28-0.16-0.34-0.35-0.15L7.4,3.42L4.12,0.15C3.93-0.05,3.61-0.05,3.42,0.15z"/>
<path fill="#4D4D4D" d="M29.85,3.42l-3.27-3.27c-0.19-0.19-0.51-0.19-0.71,0L22.6,3.42l-3.19-3.19c-0.19-0.19-0.35-0.13-0.35,0.15
	v10.07c0,0.28,0.22,0.5,0.5,0.5h10.07c0.28,0,0.34-0.16,0.15-0.35L26.58,7.4l3.28-3.28C30.05,3.93,30.05,3.61,29.85,3.42z"/>
<path fill="#4D4D4D" d="M26.58,29.85l3.27-3.27c0.19-0.19,0.19-0.51,0-0.71l-3.28-3.28l3.19-3.19c0.19-0.19,0.13-0.35-0.15-0.35
	H19.55c-0.28,0-0.5,0.22-0.5,0.5v10.07c0,0.28,0.16,0.34,0.35,0.15l3.19-3.19l3.28,3.28C26.07,30.05,26.39,30.05,26.58,29.85z"/>
</svg>
