<?xml version="1.0" encoding="utf-8"?>
<!-- Generator: Adobe Illustrator 25.2.0, SVG Export Plug-In . SVG Version: 6.00 Build 0)  -->
<svg version="1.1" id="Layer_1" xmlns="http://www.w3.org/2000/svg" xmlns:xlink="http://www.w3.org/1999/xlink" x="0px" y="0px"
	 viewBox="0 0 30 30" style="enable-background:new 0 0 30 30;" xml:space="preserve">
<style type="text/css">
	.st0{fill-rule:evenodd;clip-rule:evenodd;fill:#4D4D4D;}
</style>
<path class="st0" d="M22.03,15.48L7.9,1.35C7,0.45,5.81,0,4.63,0C3.44,0,2.26,0.45,1.36,1.34C1.36,1.35,1.35,1.36,1.34,1.36
	C0.45,2.26,0,3.44,0,4.63C0,5.81,0.45,7,1.35,7.9l14.13,14.13c-0.1,1.02,0.02,2.06,0.36,3.05c0.35,1.02,0.93,1.98,1.74,2.79
	c1,1,2.22,1.65,3.5,1.94c1.32,0.3,2.71,0.24,3.99-0.2c0.07-0.02,0.14-0.06,0.2-0.12c0.18-0.18,0.18-0.48,0-0.66l-4.42-4.42
	l-0.01-0.02l0.4-1.48l0.38-1.43l1.43-0.38l1.43-0.38l1.63,1.63l2.76,2.76c0.05,0.06,0.12,0.1,0.2,0.12
	c0.25,0.08,0.51-0.06,0.59-0.31l0,0c0.4-1.27,0.44-2.63,0.12-3.92c-0.31-1.25-0.95-2.43-1.92-3.4c-0.81-0.81-1.77-1.39-2.79-1.74
	C24.1,15.51,23.06,15.39,22.03,15.48L22.03,15.48z M6.44,6.44c-0.5,0.5-1.15,0.75-1.8,0.75c-0.65,0-1.31-0.25-1.8-0.75
	c-0.5-0.5-0.75-1.15-0.75-1.8c0-0.65,0.25-1.31,0.75-1.8c0.5-0.5,1.15-0.75,1.8-0.75c0.65,0,1.31,0.25,1.8,0.75
	c0.5,0.5,0.75,1.15,0.75,1.8C7.19,5.29,6.94,5.94,6.44,6.44z"/>
</svg>
