<?xml version="1.0" encoding="utf-8"?>
<!-- Generator: Adobe Illustrator 25.2.0, SVG Export Plug-In . SVG Version: 6.00 Build 0)  -->
<svg version="1.1" id="Layer_1" xmlns="http://www.w3.org/2000/svg" xmlns:xlink="http://www.w3.org/1999/xlink" x="0px" y="0px"
	 viewBox="0 0 20 30" style="enable-background:new 0 0 20 30;" xml:space="preserve">
<g>
	<path d="M0.5,12.2c-0.7-0.6-0.7-1.2,0-1.8l1.2-1.2c0.6-0.7,1.2-0.7,1.8,0l6.2,6.1c0.1,0.2,0.3,0.2,0.5,0l6.2-6.1
		c0.5-0.7,1.2-0.7,1.8,0l1.2,1.2c0.7,0.7,0.6,1.3,0,1.8l-8.6,8.6c-0.6,0.6-1.1,0.6-1.8,0L0.5,12.2z"/>
	<path d="M0.5,3.5c-0.7-0.6-0.7-1.2,0-1.8l1.2-1.2c0.6-0.7,1.2-0.7,1.8,0l6.2,6.1c0.1,0.2,0.3,0.2,0.5,0l6.2-6.1
		c0.5-0.7,1.2-0.7,1.8,0l1.2,1.2c0.7,0.7,0.6,1.3,0,1.8l-8.6,8.6c-0.6,0.6-1.1,0.6-1.8,0L0.5,3.5z"/>
	<path d="M0.5,21c-0.7-0.6-0.7-1.2,0-1.9l1.2-1.2c0.6-0.6,1.2-0.6,1.8,0L9.8,24c0.1,0.2,0.3,0.2,0.5,0l6.2-6.1
		c0.5-0.6,1.2-0.6,1.8,0l1.2,1.2c0.7,0.7,0.6,1.3,0,1.9l-8.6,8.6c-0.6,0.6-1.1,0.6-1.8,0L0.5,21z"/>
</g>
</svg>
