<?xml version="1.0" encoding="utf-8"?>
<!-- Generator: Adobe Illustrator 25.2.0, SVG Export Plug-In . SVG Version: 6.00 Build 0)  -->
<svg version="1.1" id="Layer_1" xmlns="http://www.w3.org/2000/svg" xmlns:xlink="http://www.w3.org/1999/xlink" x="0px" y="0px"
	 viewBox="0 0 22.16 30" style="enable-background:new 0 0 22.16 30;" xml:space="preserve">
<style type="text/css">
	.st0{fill:#4D4D4D;}
</style>
<path class="st0" d="M19.71,11.39V7.28C19.71,3.27,16.52,0,12.6,0H9.48C5.56,0,2.37,3.27,2.37,7.28v4.13C1.03,11.66,0,12.82,0,14.2
	v12.96C0,28.72,1.31,30,2.9,30h16.36c1.6,0,2.9-1.28,2.9-2.84V14.2C22.16,12.79,21.09,11.61,19.71,11.39z M12.43,21.08v3.24
	c0,0.53-0.44,0.96-0.98,0.96H11.2c-0.54,0-0.98-0.43-0.98-0.96v-3.19c-1.1-0.41-1.88-1.45-1.88-2.67c0-1.58,1.31-2.86,2.92-2.86
	c1.61,0,2.92,1.28,2.92,2.86C14.19,19.63,13.46,20.64,12.43,21.08z M17.33,11.36H4.75V7.28c0-2.69,2.12-4.88,4.73-4.88h3.12
	c2.61,0,4.73,2.19,4.73,4.88V11.36z"/>
</svg>
