<?xml version="1.0" encoding="utf-8"?>
<!-- Generator: Adobe Illustrator 25.2.0, SVG Export Plug-In . SVG Version: 6.00 Build 0)  -->
<svg version="1.1" id="Layer_1" xmlns="http://www.w3.org/2000/svg" xmlns:xlink="http://www.w3.org/1999/xlink" x="0px" y="0px"
	 width="30px" height="30px" viewBox="0 0 30 30" enable-background="new 0 0 30 30" xml:space="preserve">
<path fill-rule="evenodd" clip-rule="evenodd" fill="#4D4D4D" d="M26.5,30h-23C1.57,30,0,28.43,0,26.5v0C0,24.57,1.57,23,3.5,23h23
	c1.93,0,3.5,1.57,3.5,3.5v0C30,28.43,28.43,30,26.5,30z"/>
<path fill-rule="evenodd" clip-rule="evenodd" fill="#4D4D4D" d="M26.5,18.5h-23C1.57,18.5,0,16.93,0,15v0c0-1.93,1.57-3.5,3.5-3.5
	h23c1.93,0,3.5,1.57,3.5,3.5v0C30,16.93,28.43,18.5,26.5,18.5z"/>
<path fill-rule="evenodd" clip-rule="evenodd" fill="#4D4D4D" d="M26.5,7h-23C1.57,7,0,5.43,0,3.5v0C0,1.57,1.57,0,3.5,0h23
	C28.43,0,30,1.57,30,3.5v0C30,5.43,28.43,7,26.5,7z"/>
</svg>
