<?xml version="1.0" encoding="utf-8"?>
<!-- Generator: Adobe Illustrator 25.2.0, SVG Export Plug-In . SVG Version: 6.00 Build 0)  -->
<svg version="1.1" id="Layer_1" xmlns="http://www.w3.org/2000/svg" xmlns:xlink="http://www.w3.org/1999/xlink" x="0px" y="0px"
	 viewBox="0 0 30 30" style="enable-background:new 0 0 30 30;" xml:space="preserve">
<style type="text/css">
	.st0{fill:#4D4D4D;}
</style>
<g>
	<path class="st0" d="M12.65,30c-0.83,0-1.2-0.37-1.2-1.2V27H6.88c-0.83,0-1.2-0.37-1.2-1.2v-3.9c0-0.83,0.37-1.2,1.2-1.2h8.97
		c0.57,0,0.87-0.43,0.87-0.97c0-0.77-0.3-1.07-0.87-1.13l-5-0.7c-3.13-0.47-5.17-1.8-5.17-5.53v-3.5c0-3.47,2.13-5.47,5.77-5.8V1.2
		c0-0.83,0.37-1.2,1.2-1.2l4.83,0c0.83,0,1.2,0.37,1.2,1.2V3h3.23c0.83,0,1.2,0.37,1.2,1.2v3.97c0,0.83-0.37,1.2-1.2,1.2h-7.77
		c-0.57,0-0.9,0.4-0.9,1c0,0.6,0.33,1,0.9,1.07l4.97,0.67c3.13,0.47,5.2,1.8,5.2,5.53v3.5c0,3.4-2.1,5.43-5.63,5.8v1.87
		c0,0.83-0.37,1.2-1.2,1.2H12.65z"/>
</g>
</svg>
