<?xml version="1.0" encoding="utf-8"?>
<!-- Generator: Adobe Illustrator 25.2.0, SVG Export Plug-In . SVG Version: 6.00 Build 0)  -->
<svg version="1.1" id="Layer_1" xmlns="http://www.w3.org/2000/svg" xmlns:xlink="http://www.w3.org/1999/xlink" x="0px" y="0px"
	 width="30px" height="30px" viewBox="0 0 30 30" style="enable-background:new 0 0 30 30;" xml:space="preserve">
<style type="text/css">
	.st0{fill:#939598;}
	.st1{fill:#646464;}
</style>
<g>
	<path class="st0" d="M147.4,138.4L147.4,138.4L147.4,138.4 M140.5,139.1c0.1,0,0.1,0.1,0.2,0.1c0.1,0,0.1,0.1,0.2,0.1
		c0.1,0.1,0.2,0.1,0.3,0.2c0,0,0,0,0,0c0.1,0.1,0.1,0.1,0.2,0.2c0.6,0.4,1.2,0.7,1.7,1.1c0.1,0,0.1,0.1,0.2,0.1
		c0.1,0.1,0.1,0.1,0.2,0.1c0.2,0.1,0.3,0.1,0.5,0.1c0.3,0,0.5-0.1,0.7-0.3c0,0,0.1-0.1,0.1-0.1c0.3,0.1,0.8,0.3,1.6,0.6
		c0.1,0,0.2,0.1,0.3,0.1c0.2,0,0.4-0.1,0.5-0.2c0,0,0,0,0,0c0,0,0,0,0,0c0.4-0.2,0.6-0.7,0.4-1.2c0.2,0.1,0.4,0.2,0.6,0.3
		c0.2,0.1,0.3,0.1,0.5,0.1c0.2,0,0.3,0,0.4-0.1c0.9-0.4,1.7-0.7,2.6-0.9c0.3,0,0.7,0.3,0.9,0.6c0.2,0.3,0.5,0.5,0.9,0.5
		c0.1,0,0.2,0,0.3,0c0.4-0.1,0.7-0.5,0.7-1c0-0.1,0-0.2,0-0.3c0.4,0,0.7,0,1.1,0c1.2,0,2,0.2,2.8,0.7c0.6,0.3,3.1,2.2,3.1,5.1
		c0,0.5,0.4,0.9,0.9,1c0,0,0,0,0.1,0c0.5,0,0.9-0.4,1-0.9c0.1-0.5,0.1-1.1,0.1-1.7c0.2,0.3,0.4,0.6,0.5,0.9c0.1,0.2,0.2,0.4,0.3,0.6
		v7.2v5.5v7h-9.1c0-0.7,0-1.4,0.1-2.1c0.1-1.5,0.2-3-0.1-4.5c-0.7-4.9-1.5-5.8-2.5-5.8c-0.1,0-0.3,0-0.4,0.1
		c-0.4,0.2-0.6,0.5-0.6,0.9c0,1.3-0.5,2.2-2.9,2.7c-0.2,0-0.3,0.1-0.4,0.2c-1.5,1.3-1.9,2.1-2.2,2.7c-0.1,0.3-0.2,0.5-0.5,0.8
		c-0.5,0.5-1.1,0.8-1.8,0.8c-1,0-2-0.6-2.5-1.5c-0.6-1-0.3-1.8,0.6-3.7c0.2-0.4,0.4-0.8,0.6-1.2c0.5-1.1,0.7-2.4,0.9-3.8
		c0.3-1.9,0.6-3.9,1.8-5.7c0.3-0.4,0.2-1-0.2-1.4c-0.2-0.1-0.4-0.2-0.6-0.2c-0.1,0-0.2,0-0.3,0c0,0,0-0.1,0-0.1
		c0-0.3-0.1-0.7-0.4-0.9l-0.6-0.5c-0.1-0.1-0.1-0.1-0.2-0.1c-0.1-0.1-0.2-0.2-0.3-0.3c0-0.1-0.1-0.1-0.2-0.2c-0.5-0.4-1-0.9-1.6-1.3
		c-0.1-0.1-0.2-0.1-0.2-0.1l-0.3-0.3c0,0,0,0-0.1-0.1C140.6,139.2,140.5,139.2,140.5,139.1 M135.9,135.6c-0.1,0-0.1,0-0.1,0
		c-0.2,0.2,1.1,1.5,2.7,3c0,0,0,0,0.1,0.1c0,0,0,0,0,0c0.5,0.4,1,0.9,1.5,1.3c0.2,0.2,0.4,0.4,0.6,0.6c0,0,0,0,0,0
		c0.5,0.5,1.1,0.9,1.6,1.3c0,0,0,0,0,0c0.3,0.2,0.5,0.4,0.7,0.6c0,0,0,0,0,0c0.2,0.2,0.4,0.3,0.6,0.5c-0.5,0.3-1.1,0.5-1.6,0.5
		c-0.2,0-0.5,0-0.7-0.1c0.6,1.3,1.6,1.6,2.3,1.6c0.4,0,0.7-0.1,0.7-0.1c0.2-0.3,0.4-0.5,0.6-0.8c-2.3,3.3-1.6,7.1-2.8,9.6
		c-1.1,2.5-2.2,4-1.1,5.8c0.7,1.2,2,2,3.4,2c0.9,0,1.8-0.3,2.5-1.1c1-1.1,0.4-1.6,2.6-3.5c2.3-0.5,3.7-1.5,3.7-3.7c0,0,0,0,0,0
		c0.1,0,0.8,0.2,1.5,5c0.4,2.4-0.1,4.7,0,7.4h11.1v-8v-5.5v-7.5c-0.6-0.8-1.1-2.5-3.4-4.1c0.4,1.1,0.7,3.1,0.5,4.5
		c-0.1-3.3-2.7-5.5-3.7-6c-1.1-0.6-2.2-0.8-3.3-0.8c-0.8,0-1.6,0.1-2.4,0.2c0.1,0.1,0.3,0.6,0.3,1.2c-0.4-0.6-1.1-1.1-1.8-1.1
		c-0.1,0-0.1,0-0.2,0c-1.1,0.2-2,0.6-2.8,1c-0.8-0.4-1.5-0.6-1.8-1c-0.3-0.3-0.4-0.5-0.5-0.5c-0.3,0-0.1,1,0,1.4
		c0.1,0.3,0.2,0.6,0.3,1c0,0,0,0,0,0c0,0,0,0,0,0c-0.9-0.3-1.8-0.7-2.1-0.8c-0.3-0.2-0.7-0.4-0.9-0.4c-0.2,0-0.2,0.2,0.1,0.7
		c0,0.1,0.1,0.2,0.1,0.2c-0.1-0.1-0.2-0.1-0.3-0.2c0,0,0,0,0,0c-0.5-0.4-1.1-0.7-1.7-1.1c0,0,0,0,0,0c-0.3-0.2-0.6-0.3-0.8-0.5
		c0,0,0,0,0,0c-0.6-0.4-1.1-0.7-1.7-1c0,0,0,0,0,0c-0.2-0.1-0.3-0.1-0.4-0.2C137.6,136.3,136.3,135.6,135.9,135.6L135.9,135.6z"/>
</g>
<path class="st1" d="M11.7,2.8L11.7,2.8L11.7,2.8 M4.8,3.5c0.1,0,0.1,0.1,0.2,0.1c0.1,0,0.1,0.1,0.2,0.1c0.1,0.1,0.2,0.1,0.3,0.2
	c0,0,0,0,0,0C5.6,4,5.7,4.1,5.8,4.1c0.6,0.4,1.2,0.7,1.7,1.1c0.1,0,0.1,0.1,0.2,0.1c0.1,0.1,0.1,0.1,0.2,0.1C8,5.5,8.2,5.6,8.4,5.6
	c0.3,0,0.5-0.1,0.7-0.3c0,0,0.1-0.1,0.1-0.1c0.3,0.1,0.8,0.3,1.6,0.6c0.1,0,0.2,0.1,0.3,0.1c0.2,0,0.4-0.1,0.5-0.2c0,0,0,0,0,0
	c0,0,0,0,0,0c0.4-0.2,0.6-0.7,0.4-1.2c0.2,0.1,0.4,0.2,0.6,0.3c0.2,0.1,0.3,0.1,0.5,0.1c0.2,0,0.3,0,0.4-0.1
	c0.9-0.4,1.7-0.7,2.6-0.9c0.3,0,0.7,0.3,0.9,0.6C17.3,4.8,17.7,5,18,5c0.1,0,0.2,0,0.3,0C18.7,4.9,19,4.5,19,4c0-0.1,0-0.2,0-0.3
	c0.4,0,0.7,0,1.1,0c1.2,0,2,0.2,2.8,0.7c0.6,0.3,3.1,2.2,3.1,5.1c0,0.5,0.4,0.9,0.9,1c0,0,0,0,0.1,0c0.5,0,0.9-0.4,1-0.9
	c0.1-0.5,0.1-1.1,0.1-1.7c0.2,0.3,0.4,0.6,0.5,0.9C28.8,9,28.9,9.2,29,9.3v7.2V22v7h-9.1c0-0.7,0-1.4,0.1-2.1c0.1-1.5,0.2-3-0.1-4.5
	c-0.7-4.9-1.5-5.8-2.5-5.8c-0.1,0-0.3,0-0.4,0.1c-0.4,0.2-0.6,0.5-0.6,0.9c0,1.3-0.5,2.2-2.9,2.7c-0.2,0-0.3,0.1-0.4,0.2
	c-1.5,1.3-1.9,2.1-2.2,2.7c-0.1,0.3-0.2,0.5-0.5,0.8c-0.5,0.5-1.1,0.8-1.8,0.8c-1,0-2-0.6-2.5-1.5c-0.6-1-0.3-1.8,0.6-3.7
	c0.2-0.4,0.4-0.8,0.6-1.2c0.5-1.1,0.7-2.4,0.9-3.8c0.3-1.9,0.6-3.9,1.8-5.7c0.3-0.4,0.2-1-0.2-1.4C9.5,7.5,9.3,7.5,9.1,7.5
	c-0.1,0-0.2,0-0.3,0c0,0,0-0.1,0-0.1c0-0.3-0.1-0.7-0.4-0.9L7.9,6.1C7.8,6.1,7.8,6,7.7,6C7.6,5.9,7.5,5.8,7.4,5.7
	c0-0.1-0.1-0.1-0.2-0.2c-0.5-0.4-1-0.9-1.6-1.3C5.5,4.2,5.5,4.1,5.4,4.1L5.1,3.7c0,0,0,0-0.1-0.1C4.9,3.6,4.9,3.6,4.8,3.5 M0.2,0
	C0.1,0,0.1,0,0,0c-0.2,0.2,1.1,1.5,2.7,3c0,0,0,0,0.1,0.1c0,0,0,0,0,0c0.5,0.4,1,0.9,1.5,1.3C4.5,4.6,4.7,4.8,4.9,5c0,0,0,0,0,0
	c0.5,0.5,1.1,0.9,1.6,1.3c0,0,0,0,0,0C6.8,6.5,7,6.7,7.2,6.9c0,0,0,0,0,0c0.2,0.2,0.4,0.3,0.6,0.5C7.3,7.7,6.8,7.8,6.2,7.8
	c-0.2,0-0.5,0-0.7-0.1c0.6,1.3,1.6,1.6,2.3,1.6c0.4,0,0.7-0.1,0.7-0.1C8.7,9,8.9,8.7,9.1,8.5c-2.3,3.3-1.6,7.1-2.8,9.6
	c-1.1,2.5-2.2,4-1.1,5.8c0.7,1.2,2,2,3.4,2c0.9,0,1.8-0.3,2.5-1.1c1-1.1,0.4-1.6,2.6-3.5c2.3-0.5,3.7-1.5,3.7-3.7c0,0,0,0,0,0
	c0.1,0,0.8,0.2,1.5,5c0.4,2.4-0.1,4.7,0,7.4H30v-8v-5.5V9c-0.6-0.8-1.1-2.5-3.4-4.1C27,6,27.3,8,27.1,9.4c-0.1-3.3-2.7-5.5-3.7-6
	c-1.1-0.6-2.2-0.8-3.3-0.8c-0.8,0-1.6,0.1-2.4,0.2C17.8,2.9,18,3.4,18,4c-0.4-0.6-1.1-1.1-1.8-1.1c-0.1,0-0.1,0-0.2,0
	c-1.1,0.2-2,0.6-2.8,1c-0.8-0.4-1.5-0.6-1.8-1c-0.3-0.3-0.4-0.5-0.5-0.5c-0.3,0-0.1,1,0,1.4c0.1,0.3,0.2,0.6,0.3,1c0,0,0,0,0,0
	c0,0,0,0,0,0C10.2,4.5,9.3,4.2,9,4C8.7,3.8,8.3,3.6,8.2,3.6C8,3.6,7.9,3.8,8.2,4.3c0,0.1,0.1,0.2,0.1,0.2C8.2,4.5,8.1,4.4,8,4.3
	c0,0,0,0,0,0C7.5,4,6.9,3.6,6.3,3.3c0,0,0,0,0,0C6,3,5.7,2.9,5.5,2.7c0,0,0,0,0,0c-0.6-0.4-1.1-0.7-1.7-1c0,0,0,0,0,0
	C3.7,1.7,3.5,1.6,3.4,1.5C1.9,0.6,0.6,0,0.2,0L0.2,0z"/>
</svg>
