<?xml version="1.0" encoding="utf-8"?>
<!-- Generator: Adobe Illustrator 25.2.0, SVG Export Plug-In . SVG Version: 6.00 Build 0)  -->
<svg version="1.1" id="Layer_1" xmlns="http://www.w3.org/2000/svg" xmlns:xlink="http://www.w3.org/1999/xlink" x="0px" y="0px"
	 width="30px" height="30px" viewBox="0 0 30 30" style="enable-background:new 0 0 30 30;" xml:space="preserve">
<style type="text/css">
	.st0{fill:#C1CDD5;}
	.st1{fill:#60379A;}
	.st2{fill:#758795;}
	.st3{fill:#292F33;}
	.st4{fill:#53626C;}
	.st5{fill:#EE7C0E;}
	.st6{fill:#C43512;}
</style>
<path class="st0" d="M30,16.5c-2.1-8.3-9.2-15-16.7-10.9c0,0-3.8-1.3-4.3-1.6C8.4,3.6,7.6,3.2,8.2,4.3c0.4,0.7,0.7,1.4,2,2.8
	c-3.6,3.6-2.6,8.1-3.9,11c-1.1,2.5-2.2,4-1.1,5.8c1.1,2,4,2.9,5.9,0.9c1-1.1,0.4-1.6,2.6-3.5c2.3-0.5,3.7-1.5,3.7-3.7
	c0,0,0.7-0.3,1.5,5c0.4,2.4-0.1,4.7,0,7.4H30V16.5z"/>
<path class="st1" d="M26.6,4.9C27,6,27.3,8,27.1,9.4c-0.1-3.3-2.7-5.5-3.7-6c-1.8-1-3.7-0.8-5.7-0.6C17.8,2.9,18,3.4,18,4
	c-0.4-0.7-1.3-1.2-2-1.1c-1.1,0.2-2.1,0.6-2.9,1c-0.4,0.1-1,0.3-2,0.9c-1.6,1-3.5,3.6-5.6,2.9c0.9,2.1,3,1.5,3,1.5
	c1-1.6,3.4-3.2,5.2-3.7c6.4-1.5,10.6,2.9,12.9,7.9c0.6,1.4,2.2,6,3.4,8.6V9C29.4,8.2,28.9,6.5,26.6,4.9z"/>
<path class="st0" d="M11.4,2.9c0.5,0.7,2.7,0.7,3.8,3.2s-1.6,2.2-2.6,1c-1.1-1.3-1.6-2.4-1.8-3.3C10.7,3.3,10.4,1.6,11.4,2.9z"/>
<path class="st2" d="M11.7,4c0.8,0.5,1.8,1.3,2.1,2.2s-0.6,0.7-1.1,0c-0.5-0.8-0.8-1.7-1.1-1.9C11.4,4,11.7,4,11.7,4z"/>
<circle class="st3" cx="12.6" cy="12.1" r="0.8"/>
<path class="st4" d="M7.1,22.4c0.1,0.6-0.2,1.1-0.6,1.1c-0.4,0.1-0.8-0.3-0.9-0.9c-0.1-0.6,0.2-1.1,0.6-1.1
	C6.6,21.4,7,21.8,7.1,22.4z"/>
<path class="st5" d="M11.4,6.7L11.4,6.7L11.4,6.7C11.4,6.6,11.4,6.6,11.4,6.7C11.4,6.6,11.4,6.6,11.4,6.7
	C11.4,6.6,11.4,6.6,11.4,6.7C10.4,5.8,0.6-0.6,0,0s8.6,8,9.2,8.4l0,0l0.5,0.4l0,0l0,0l0,0l0,0c0.5,0.3,1.2,0.1,1.7-0.5
	C11.9,7.8,11.9,7,11.4,6.7z"/>
<path class="st6" d="M3.8,1.7L3.8,1.7C3.5,1.6,3.3,1.4,3,1.3v0.1C2.9,1.6,2.8,1.8,2.6,2C2.5,2.2,2.4,2.3,2.2,2.5l0,0
	c0.2,0.2,0.4,0.4,0.6,0.6C3,2.9,3.2,2.7,3.3,2.5C3.5,2.3,3.6,2,3.8,1.7z"/>
<path class="st6" d="M5.7,4.2c0.3-0.3,0.4-0.7,0.6-1C6,3,5.7,2.9,5.5,2.7C5.4,3,5.3,3.3,5,3.7C4.7,4.1,4.5,4.3,4.3,4.4
	C4.5,4.6,4.7,4.8,4.9,5C5.2,4.8,5.4,4.5,5.7,4.2z"/>
<path class="st6" d="M8.1,6c0.3-0.4,0.5-0.8,0.6-1.2C8.5,4.6,8.2,4.5,8,4.3C8,4.5,7.8,5,7.4,5.5C7.1,5.9,6.8,6.2,6.5,6.3
	C6.8,6.5,7,6.7,7.2,6.9C7.5,6.7,7.8,6.4,8.1,6z"/>
</svg>
