<?xml version="1.0" encoding="utf-8"?>
<!-- Generator: Adobe Illustrator 25.2.0, SVG Export Plug-In . SVG Version: 6.00 Build 0)  -->
<svg version="1.1" id="Layer_1" xmlns="http://www.w3.org/2000/svg" xmlns:xlink="http://www.w3.org/1999/xlink" x="0px" y="0px"
	 viewBox="0 0 30 30" style="enable-background:new 0 0 30 30;" xml:space="preserve">
<style type="text/css">
	.st0{fill:#4D4D4D;}
</style>
<path class="st0" d="M23.6,11.4h-2.4h-1.5h-11V7.3c0-2.7,2.1-4.9,4.7-4.9h3.1c2.6,0,4.7,2.2,4.7,4.9v0l0,0c0,0.4,0.3,0.6,0.6,0.6
	h1.1c0.4,0,0.6-0.3,0.6-0.6l0,0v0c0-4-3.2-7.3-7.1-7.3h-3C9.5,0,6.3,3.3,6.3,7.3v4.1c-1.4,0.3-2.4,1.4-2.4,2.8v13
	c0,1.5,1.3,2.8,2.9,2.8h16.4c1.6,0,2.9-1.3,2.9-2.8v-13C26.1,12.8,25,11.4,23.6,11.4z M16.3,21.1v3.2c0,0.5-0.4,1-1,1h-0.2
	c-0.5,0-1-0.4-1-1v-3.2c-1.1-0.4-1.9-1.5-1.9-2.7c0-1.6,1.3-2.9,2.9-2.9s2.9,1.3,2.9,2.9C18.1,19.6,17.4,20.6,16.3,21.1z"/>
</svg>
