<?xml version="1.0" encoding="utf-8"?>
<!-- Generator: Adobe Illustrator 25.2.0, SVG Export Plug-In . SVG Version: 6.00 Build 0)  -->
<svg version="1.1" id="Layer_1" xmlns="http://www.w3.org/2000/svg" xmlns:xlink="http://www.w3.org/1999/xlink" x="0px" y="0px"
	 viewBox="0 0 30 30" style="enable-background:new 0 0 30 30;" xml:space="preserve">
<style type="text/css">
	.st0{fill:#4D4D4D;}
</style>
<g>
	<path class="st0" d="M16.59,18.8l-1.23,3.48l-2.15,6.09C12.87,29.35,11.97,30,10.97,30H5.84c-1,0-1.9-0.65-2.25-1.64L0.22,18.8
		c-0.83-2.35,0.83-4.84,3.23-4.84h9.93c0.05,0,0.1,0,0.15,0C15.83,14.06,17.4,16.5,16.59,18.8z"/>
	<path class="st0" d="M16.59,18.8l-1.23,3.48l-2.15,6.09C12.87,29.35,11.97,30,10.97,30H5.84c-1,0-1.9-0.65-2.25-1.64L0.22,18.8
		c-0.83-2.35,0.83-4.84,3.23-4.84h9.93c0.05,0,0.1,0,0.15,0C15.83,14.06,17.4,16.5,16.59,18.8z"/>
	<ellipse class="st0" cx="8.4" cy="7.14" rx="4.85" ry="5.07"/>
	<g>
		<path class="st0" d="M29.78,16.72l-3.38,9.56c-0.35,0.98-1.24,1.64-2.25,1.64h-5.13c-1,0-1.9-0.65-2.25-1.64l-0.19-0.55l2.16-6.11
			c0.65-1.84,0.4-3.9-0.68-5.5c-0.62-0.93-1.48-1.65-2.45-2.08c0.32-0.1,0.66-0.16,1.01-0.16h9.93
			C28.95,11.89,30.61,14.38,29.78,16.72z"/>
		<ellipse class="st0" cx="21.6" cy="5.07" rx="4.85" ry="5.07"/>
	</g>
</g>
</svg>
