<?xml version="1.0" encoding="utf-8"?>
<!-- Generator: Adobe Illustrator 25.2.0, SVG Export Plug-In . SVG Version: 6.00 Build 0)  -->
<svg version="1.1" id="Layer_1" xmlns="http://www.w3.org/2000/svg" xmlns:xlink="http://www.w3.org/1999/xlink" x="0px" y="0px"
	 viewBox="0 0 30 30" style="enable-background:new 0 0 30 30;" xml:space="preserve">
<style type="text/css">
	.st0{fill:#4D4D4D;}
</style>
<path class="st0" d="M24.6,30c-1.4,0-2.8-0.6-3.8-1.6c-1-1-1.6-2.4-1.6-3.8c0-0.1,0-0.3,0-0.4L8.9,19.1c-1,0.9-2.2,1.3-3.5,1.3
	c-1.4,0-2.8-0.6-3.8-1.6c-1-1-1.6-2.4-1.6-3.8c0-1.4,0.6-2.8,1.6-3.8c1-1,2.4-1.6,3.8-1.6c1.3,0,2.6,0.5,3.5,1.3l10.3-5.1
	c0-0.1,0-0.3,0-0.4c0-1.4,0.6-2.8,1.6-3.8c1-1,2.4-1.6,3.8-1.6c1.4,0,2.8,0.6,3.8,1.6c1,1,1.6,2.4,1.6,3.8s-0.6,2.8-1.6,3.8
	c-1,1-2.4,1.6-3.8,1.6c-1.3,0-2.6-0.5-3.5-1.3l-10.3,5.1c0,0.1,0,0.3,0,0.4s0,0.3,0,0.4l10.3,5.1c1-0.9,2.2-1.3,3.5-1.3
	c1.4,0,2.8,0.6,3.8,1.6c1,1,1.6,2.4,1.6,3.8c0,1.4-0.6,2.8-1.6,3.8C27.4,29.4,26,30,24.6,30z"/>
</svg>
