<?xml version="1.0" encoding="utf-8"?>
<!-- Generator: Adobe Illustrator 25.2.0, SVG Export Plug-In . SVG Version: 6.00 Build 0)  -->
<svg version="1.1" id="Layer_1" xmlns="http://www.w3.org/2000/svg" xmlns:xlink="http://www.w3.org/1999/xlink" x="0px" y="0px"
	 viewBox="0 0 30 30" style="enable-background:new 0 0 30 30;" xml:space="preserve">
<style type="text/css">
	.st0{fill:#4D4D4D;}
</style>
<g>
	<path class="st0" d="M20.8,20.5v3.9c0,1.2-1,2.2-2.2,2.2h-13c-1.2,0-2.2-1-2.2-2.2v-13c0-1.2,1-2.2,2.2-2.2h4L13,5.8H5.6
		C2.5,5.8,0,8.3,0,11.4v13C0,27.5,2.5,30,5.6,30h13c3.1,0,5.6-2.5,5.6-5.6V17L20.8,20.5z"/>
	<g>
		<path class="st0" d="M26.1,0H14.2c-2.2,0-2,0.6-0.9,1.7l3.7,3.7l-6.4,6.4c-1.3,1.3-1.3,3.5,0,4.8l2.8,2.8c1.3,1.3,3.5,1.3,4.8,0
			l6.4-6.4l3.6,3.6c1.3,1.3,1.7,1.3,1.7-0.9l0-11.8C30,0,30,0,26.1,0z"/>
	</g>
</g>
</svg>
