<?xml version="1.0" encoding="utf-8"?>
<!-- Generator: Adobe Illustrator 25.2.0, SVG Export Plug-In . SVG Version: 6.00 Build 0)  -->
<svg version="1.1" id="Layer_1" xmlns="http://www.w3.org/2000/svg" xmlns:xlink="http://www.w3.org/1999/xlink" x="0px" y="0px"
	 viewBox="0 0 30 30" style="enable-background:new 0 0 30 30;" xml:space="preserve">
<style type="text/css">
	.st0{fill:#4D4D4D;}
</style>
<g>
	<path class="st0" d="M29.1,4.4c0.4-0.4,0.4-1,0-1.4L27,0.9c-0.4-0.4-1-0.4-1.4,0l-9.8,9.8c-0.4,0.4-1,0.4-1.4,0L4.4,0.9
		c-0.4-0.4-1-0.4-1.4,0L0.9,3c-0.4,0.4-0.4,1,0,1.4l9.8,9.8c0.4,0.4,0.4,1,0,1.4l-9.8,9.8c-0.4,0.4-0.4,1,0,1.4L3,29.1
		c0.4,0.4,1,0.4,1.4,0l9.8-9.8c0.4-0.4,1-0.4,1.4,0l9.8,9.8c0.4,0.4,1,0.4,1.4,0l2.1-2.1c0.4-0.4,0.4-1,0-1.4l-9.8-9.8
		c-0.4-0.4-0.4-1,0-1.4L29.1,4.4z"/>
</g>
</svg>
