<?xml version="1.0" encoding="utf-8"?>
<!-- Generator: Adobe Illustrator 25.2.0, SVG Export Plug-In . SVG Version: 6.00 Build 0)  -->
<svg version="1.1" id="Layer_1" xmlns="http://www.w3.org/2000/svg" xmlns:xlink="http://www.w3.org/1999/xlink" x="0px" y="0px"
	 viewBox="0 0 30 30" style="enable-background:new 0 0 30 30;" xml:space="preserve">
<style type="text/css">
	.st0{fill:#4D4D4D;}
</style>
<g>
	<path class="st0" d="M12.2,30c-1,0-1.4-0.4-1.4-1.2V27H5.2c-1,0-1.4-0.4-1.4-1.2v-3.9c0-0.8,0.4-1.2,1.4-1.2H16c0.7,0,1-0.4,1-1
		c0-0.8-0.4-1.1-1-1.1l-6-0.7c-3.8-0.5-6.2-1.8-6.2-5.5V8.9c0-3.5,2.6-5.5,6.9-5.8V1.2c0-0.8,0.4-1.2,1.4-1.2H18
		c1,0,1.4,0.4,1.4,1.2V3h3.9c1,0,1.4,0.4,1.4,1.2v4c0,0.8-0.4,1.2-1.4,1.2H14c-0.7,0-1.1,0.4-1.1,1s0.4,1,1.1,1.1l6,0.7
		c3.8,0.5,6.2,1.8,6.2,5.5v3.5c0,3.4-2.5,5.4-6.8,5.8v1.9c0,0.8-0.4,1.2-1.4,1.2L12.2,30L12.2,30z"/>
</g>
</svg>
