<?xml version="1.0" encoding="utf-8"?>
<!-- Generator: Adobe Illustrator 25.2.0, SVG Export Plug-In . SVG Version: 6.00 Build 0)  -->
<svg version="1.1" id="Layer_1" xmlns="http://www.w3.org/2000/svg" xmlns:xlink="http://www.w3.org/1999/xlink" x="0px" y="0px"
	 viewBox="0 0 30 30" style="enable-background:new 0 0 30 30;" xml:space="preserve">
<style type="text/css">
	.st0{fill-rule:evenodd;clip-rule:evenodd;fill:#4D4D4D;}
</style>
<path class="st0" d="M15,0c8.28,0,15,6.72,15,15c0,8.28-6.72,15-15,15C6.72,30,0,23.28,0,15C0,6.72,6.72,0,15,0L15,0z M15,2.1
	c-3.56,0-6.79,1.44-9.12,3.78C3.54,8.21,2.1,11.44,2.1,15s1.44,6.79,3.78,9.12c2.34,2.34,5.56,3.78,9.12,3.78s6.79-1.44,9.12-3.78
	c2.34-2.34,3.78-5.56,3.78-9.12s-1.44-6.79-3.78-9.12C21.79,3.54,18.56,2.1,15,2.1L15,2.1z M23.68,6.32
	c-2.22-2.22-5.29-3.6-8.68-3.6c-3.39,0-6.46,1.37-8.68,3.6c-2.22,2.22-3.6,5.29-3.6,8.68c0,3.39,1.37,6.46,3.6,8.68
	c2.22,2.22,5.29,3.6,8.68,3.6c3.39,0,6.46-1.37,8.68-3.6c2.22-2.22,3.6-5.29,3.6-8.68C27.28,11.61,25.91,8.54,23.68,6.32L23.68,6.32
	z M15.31,3.61c0-0.17-0.14-0.31-0.31-0.31c-0.17,0-0.31,0.14-0.31,0.31v0.88c0,0.17,0.14,0.31,0.31,0.31c0.17,0,0.31-0.14,0.31-0.31
	V3.61L15.31,3.61z M15.31,25.51c0-0.17-0.14-0.31-0.31-0.31c-0.17,0-0.31,0.14-0.31,0.31v0.88c0,0.17,0.14,0.31,0.31,0.31
	c0.17,0,0.31-0.14,0.31-0.31V25.51L15.31,25.51z M20.96,5.29c0.09-0.15,0.03-0.34-0.11-0.42c-0.15-0.09-0.34-0.03-0.42,0.11
	l-0.44,0.76c-0.09,0.15-0.03,0.34,0.11,0.42c0.15,0.09,0.34,0.03,0.42-0.11L20.96,5.29L20.96,5.29z M10.01,24.26
	c0.09-0.15,0.03-0.34-0.11-0.42c-0.15-0.09-0.34-0.03-0.42,0.11l-0.44,0.76C8.95,24.86,9,25.05,9.15,25.13
	c0.15,0.09,0.34,0.03,0.42-0.11L10.01,24.26L10.01,24.26z M25.02,9.58c0.15-0.09,0.2-0.28,0.11-0.42c-0.09-0.15-0.28-0.2-0.42-0.11
	l-0.76,0.44c-0.15,0.09-0.2,0.28-0.11,0.42c0.09,0.15,0.28,0.2,0.42,0.11L25.02,9.58L25.02,9.58z M6.05,20.52
	c0.15-0.09,0.2-0.28,0.11-0.42c-0.09-0.15-0.28-0.2-0.42-0.11l-0.76,0.44c-0.15,0.09-0.2,0.28-0.11,0.42
	c0.09,0.15,0.28,0.2,0.42,0.11L6.05,20.52L6.05,20.52z M26.39,15.31c0.17,0,0.31-0.14,0.31-0.31c0-0.17-0.14-0.31-0.31-0.31h-0.88
	c-0.17,0-0.31,0.14-0.31,0.31c0,0.17,0.14,0.31,0.31,0.31H26.39L26.39,15.31z M4.49,15.31c0.17,0,0.31-0.14,0.31-0.31
	c0-0.17-0.14-0.31-0.31-0.31H3.61c-0.17,0-0.31,0.14-0.31,0.31c0,0.17,0.14,0.31,0.31,0.31H4.49L4.49,15.31z M24.71,20.96
	c0.15,0.09,0.34,0.03,0.42-0.11c0.09-0.15,0.03-0.34-0.11-0.42l-0.76-0.44c-0.15-0.09-0.34-0.03-0.42,0.11
	c-0.09,0.15-0.03,0.34,0.11,0.42L24.71,20.96L24.71,20.96z M5.74,10.01c0.15,0.09,0.34,0.03,0.42-0.11C6.25,9.75,6.2,9.56,6.05,9.48
	L5.29,9.04C5.14,8.95,4.95,9,4.87,9.15C4.78,9.3,4.83,9.49,4.98,9.58L5.74,10.01L5.74,10.01z M20.42,25.02
	c0.09,0.15,0.28,0.2,0.42,0.11c0.15-0.09,0.2-0.28,0.11-0.42l-0.44-0.76c-0.09-0.15-0.28-0.2-0.42-0.11
	c-0.15,0.09-0.2,0.28-0.11,0.42L20.42,25.02L20.42,25.02z M9.48,6.05C9.56,6.2,9.75,6.25,9.9,6.17c0.15-0.09,0.2-0.28,0.11-0.42
	L9.58,4.98C9.49,4.83,9.3,4.78,9.15,4.87C9,4.95,8.95,5.14,9.04,5.29L9.48,6.05L9.48,6.05z M14.46,6.24v7.81
	c-0.03,0.02-0.06,0.04-0.09,0.06l-1.1-0.63l-0.45,0.79l1.1,0.63c0,0.03,0,0.07,0,0.1c0,0.4,0.22,0.76,0.54,0.94v1.73h1.09v-1.73
	c0.03-0.02,0.06-0.04,0.09-0.06l5.56,3.21l0.45-0.79l-5.56-3.21c0-0.03,0-0.07,0-0.1c0-0.4-0.22-0.76-0.54-0.94V6.24H14.46z"/>
</svg>
